<?xml version="1.0" encoding="utf-8"?>
<!-- Generator: Adobe Illustrator 16.0.0, SVG Export Plug-In . SVG Version: 6.00 Build 0)  -->
<!DOCTYPE svg PUBLIC "-//W3C//DTD SVG 1.1//EN" "http://www.w3.org/Graphics/SVG/1.1/DTD/svg11.dtd">
<svg version="1.1" id="Layer_1" xmlns="http://www.w3.org/2000/svg" xmlns:xlink="http://www.w3.org/1999/xlink" x="0px" y="0px"
	 width="328.926px" height="201.711px" viewBox="0 0 328.926 201.711" enable-background="new 0 0 328.926 201.711"
	 xml:space="preserve">
<pattern  width="80.875" height="140.305" patternUnits="userSpaceOnUse" id="New_Pattern" viewBox="0 -140.305 80.875 140.305" overflow="visible">
	<g>
		<polygon fill="none" points="0,-140.305 80.875,-140.305 80.875,0 0,0 		"/>
		<g>
			
				<path fill="none" stroke="#6CFF70" stroke-width="0.5" stroke-linecap="round" stroke-linejoin="round" stroke-miterlimit="10" d="
				M59.02-129.984c8.072-2.313,8.957,9.437,8.957,9.437l0.001,0.034l-0.031-0.002c0,0-11.603-1.101-9.175-9.221l0.074-0.173
				L59.02-129.984z"/>
		</g>
		<g>
			
				<path fill="none" stroke="#6CFF70" stroke-width="0.5" stroke-linecap="round" stroke-linejoin="round" stroke-miterlimit="10" d="
				M58.289-83.407c6.888,3.662,10.079-6.477,10.079-6.477l0.008-0.029l-0.029-0.003c0,0-10.799-1.378-10.233,6.243l0.031,0.167
				L58.289-83.407z"/>
			
				<path fill="none" stroke="#6CFF70" stroke-width="0.5" stroke-linecap="round" stroke-linejoin="round" stroke-miterlimit="10" d="
				M18.583-59.832c8.072-2.313,8.957,9.437,8.957,9.437l0.001,0.034l-0.031-0.002c0,0-11.603-1.101-9.175-9.221l0.074-0.173
				L18.583-59.832z"/>
		</g>
		<g>
			
				<path fill="none" stroke="#6CFF70" stroke-width="0.5" stroke-linecap="round" stroke-linejoin="round" stroke-miterlimit="10" d="
				M17.851-13.255c6.888,3.662,10.079-6.477,10.079-6.477l0.008-0.029l-0.029-0.003c0,0-10.799-1.378-10.233,6.243l0.031,0.167
				L17.851-13.255z"/>
		</g>
	</g>
</pattern>
<rect fill="url(#New_Pattern)" width="328.926" height="201.711"/>
</svg>
