<?xml version="1.0" encoding="UTF-8" standalone="no"?>
<!-- Generator: Adobe Illustrator 16.0.0, SVG Export Plug-In . SVG Version: 6.00 Build 0)  -->

<svg
   xmlns:dc="http://purl.org/dc/elements/1.1/"
   xmlns:cc="http://creativecommons.org/ns#"
   xmlns:rdf="http://www.w3.org/1999/02/22-rdf-syntax-ns#"
   xmlns:svg="http://www.w3.org/2000/svg"
   xmlns="http://www.w3.org/2000/svg"
   xmlns:sodipodi="http://sodipodi.sourceforge.net/DTD/sodipodi-0.dtd"
   xmlns:inkscape="http://www.inkscape.org/namespaces/inkscape"
   version="1.1"
   id="Layer_1"
   x="0px"
   y="0px"
   width="171.5647"
   height="244.93573"
   viewBox="-0.7 0 171.56469 244.93574"
   enable-background="new 0 0 107.015 386.072"
   xml:space="preserve"
   sodipodi:docname="boomtop.svg"
   inkscape:version="0.92.1 r15371"><metadata
     id="metadata9"><rdf:RDF><cc:Work
         rdf:about=""><dc:format>image/svg+xml</dc:format><dc:type
           rdf:resource="http://purl.org/dc/dcmitype/StillImage" /><dc:title></dc:title></cc:Work></rdf:RDF></metadata><defs
     id="defs7" /><sodipodi:namedview
     pagecolor="#ffffff"
     bordercolor="#666666"
     borderopacity="1"
     objecttolerance="10"
     gridtolerance="10"
     guidetolerance="10"
     inkscape:pageopacity="0"
     inkscape:pageshadow="2"
     inkscape:window-width="1920"
     inkscape:window-height="1043"
     id="namedview5"
     showgrid="false"
     viewbox-x="-0.7"
     fit-margin-top="20"
     fit-margin-left="20"
     fit-margin-right="20"
     fit-margin-bottom="0"
     inkscape:zoom="1.7289749"
     inkscape:cx="-38.980777"
     inkscape:cy="33.241368"
     inkscape:window-x="1920"
     inkscape:window-y="0"
     inkscape:window-maximized="1"
     inkscape:current-layer="Layer_1" /><path
     style="fill:#c4ffc4;fill-opacity:1;stroke-width:1.10878932"
     d="m 80.583962,20.007996 c -11.712625,0.333 -26.660946,6.666984 -29.891844,16.333985 -3.232133,9.667 -3.231192,80.333969 -3.634439,84.917969 -0.403248,4.584 -10.502637,9.41504 -16.964433,14.74804 -6.463041,5.333 -8.481471,10.66799 -10.098145,22.08399 -1.614224,11.416 -0.809031,24.583 6.647366,33.25 7.455172,8.667 18.393903,7.66601 22.029283,11.16601 3.635371,3.5 3.23143,9.83397 8.077777,15.16797 3.484158,3.832 6.758561,6.63325 15.752953,7.90625 v 19.35352 h 25.262984 l 0.185532,-19.42774 c 0.0048,-0.443 -0.01434,-0.86348 -0.04265,-1.27148 10.914724,-4.404 14.156134,-14.57952 16.602664,-19.22852 1.84289,-3.5 5.70665,-5.06303 10.50259,-6.33203 7.2978,-1.934 25.8511,-12.00098 25.8511,-30.33398 0,-18.333 -10.09948,-21.66602 -16.15925,-26.66602 -6.05856,-5 -3.22814,-25.00098 -3.22814,-38.33398 0,-13.332996 -6.06066,-16.999996 -11.31148,-16.999996 -5.25207,0 -8.07799,10.666011 -12.92556,10.666011 -4.84758,0 -1.61524,-9.666281 -2.42296,-38.488281 C 104.00955,29.697712 92.296587,19.674996 80.583962,20.007996 Z"
     id="path2"
     inkscape:connector-curvature="0" /></svg>