<?xml version="1.0" encoding="UTF-8" standalone="no"?>
<!-- Generator: Adobe Illustrator 16.0.0, SVG Export Plug-In . SVG Version: 6.00 Build 0)  -->

<svg
   xmlns:dc="http://purl.org/dc/elements/1.1/"
   xmlns:cc="http://creativecommons.org/ns#"
   xmlns:rdf="http://www.w3.org/1999/02/22-rdf-syntax-ns#"
   xmlns:svg="http://www.w3.org/2000/svg"
   xmlns="http://www.w3.org/2000/svg"
   xmlns:sodipodi="http://sodipodi.sourceforge.net/DTD/sodipodi-0.dtd"
   xmlns:inkscape="http://www.inkscape.org/namespaces/inkscape"
   version="1.1"
   id="Layer_1"
   x="0px"
   y="0px"
   width="297.73349"
   height="193.036"
   viewBox="-0.7 0 297.73349 193.036"
   enable-background="new 0 0 107.015 386.072"
   xml:space="preserve"
   sodipodi:docname="boom1.svg"
   inkscape:version="0.92.1 r15371"><metadata
     id="metadata9"><rdf:RDF><cc:Work
         rdf:about=""><dc:format>image/svg+xml</dc:format><dc:type
           rdf:resource="http://purl.org/dc/dcmitype/StillImage" /><dc:title></dc:title></cc:Work></rdf:RDF></metadata><defs
     id="defs7" /><sodipodi:namedview
     pagecolor="#ffffff"
     bordercolor="#666666"
     borderopacity="1"
     objecttolerance="10"
     gridtolerance="10"
     guidetolerance="10"
     inkscape:pageopacity="0"
     inkscape:pageshadow="2"
     inkscape:window-width="1920"
     inkscape:window-height="1043"
     id="namedview5"
     showgrid="false"
     viewbox-x="-0.7"
     fit-margin-top="0"
     fit-margin-left="0"
     fit-margin-right="0"
     fit-margin-bottom="0"
     inkscape:zoom="0.61128496"
     inkscape:cx="124.78702"
     inkscape:cy="184.25506"
     inkscape:window-x="1920"
     inkscape:window-y="0"
     inkscape:window-maximized="1"
     inkscape:current-layer="Layer_1" /><g
     id="g4485"
     transform="translate(0,193.03599)"><path
       style="fill:#e1ffe1"
       inkscape:connector-curvature="0"
       id="path2"
       d="m 173.11085,16.467649 c -15.339,-6.25 -15.153,-13.4380002 -15.339,-16.06300019 l 0.862,-110.62599881 c 0.004,-0.443 -0.011,-0.863 -0.034,-1.271 8.878,-4.404 11.515,-14.58 13.505,-19.229 1.499,-3.5 4.641,-5.063 8.542,-6.332 5.936,-1.934 21.027,-12 21.027,-30.333 0,-18.333 -8.214,-21.667 -13.143,-26.667 -4.928,-5 -2.627,-25 -2.627,-38.333 0,-13.333 -4.929,-17 -9.2,-17 -4.272,0 -6.57,10.666 -10.513,10.666 -3.943,0 -1.315,-9.666 -1.972,-38.488 -0.657,-28.822 -10.184,-38.845 -19.711,-38.512 -9.527,0.333 -21.685,6.667 -24.313,16.334 -2.629,9.667 -2.629,80.333 -2.957,84.917 -0.328,4.584 -8.543,9.416 -13.799,14.749 -5.257004,5.333 -6.899005,10.667 -8.214005,22.083 -1.313,11.416 -0.657,24.584 5.408005,33.251 6.064,8.667 14.961,7.666 17.918,11.166 2.957,3.5 2.629,9.834 6.571,15.168 2.834,3.832 5.497,6.633 12.813,7.906 0,2.512 0,74.648999 0,105.9269988 0,3.012 0.123,8.457 -1.273,12.373 -3.573,10.0210002 -33.717,29.1270002 -35.195,38.8770002 -0.985,5.5 -1.232,10.5 0,11.25 1.232,0.75 3.203,-2 3.696,-3.5 0.493,-1.5 0.246,-5.5 1.725,-8 1.479,-2.5 1.726,-4 6.653,-4.75 4.927,-0.75 6.16,-2 9.61,-4.5 3.449,-2.5 3.449,-4.5 5.913,-1.5 2.465,3 -4.188,18.75 -6.16,24 -1.971,5.25 -3.696,9.75 -1.971,10.25 1.725,0.5 2.71,-2 5.174,-6.75 2.465,-4.75 5.175,-15.25 7.393,-17.25 2.218,-2 7.146,-4.5 8.625,-7.75 1.479,-3.25 2.217,-6 3.695,-6 1.478,0 3.204,7.25 4.189,10.5 0.985,3.25 4.189,5 4.436,7.5 0.247,2.5 0.246,11 1.232,14.5 0.985,3.5 0.738,3.75 2.217,3.5 1.479,-0.25 1.232,-0.75 1.726,-7 0.492,-6.25 0.492,-6.5 -1.479,-12.5 -1.972,-6 -3.45,-11.75 -3.45,-14 0,-2.25 -0.246,-3 1.232,-4 1.478,-1 5.421,1 8.131,4.25 2.711,3.25 6.653,11 7.886,12.25 1.231,1.25 1.479,2 4.188,2.25 2.711,0.25 4.682,0.25 4.682,-1.25 0,-1.5 -3.881,-2.666 -6.406,-5.916 -2.525,-3.25 -10.226,-17.959 -8.439,-18.396 1.787,-0.437 8.624,0.188 11.643,1.875 3.019,1.687 9.826,5.563 11.489,9 1.663,3.437 4.065,7.156 4.651,7.75 1.14,1.156 6.037,0.25 1.848,-6.688 -4.189,-6.938 -7.145,-13.438 -22.485,-19.688 z" /><rect
       transform="scale(1,-1)"
       y="-193.036"
       x="-0.69999999"
       height="579.10797"
       width="297.73349"
       id="rect4486"
       style="opacity:0.58200001;fill:none;stroke:none;stroke-width:0.86694425" /></g></svg>