<?xml version="1.0" encoding="UTF-8" standalone="no"?>
<!-- Generator: Adobe Illustrator 16.0.0, SVG Export Plug-In . SVG Version: 6.00 Build 0)  -->

<svg
   xmlns:dc="http://purl.org/dc/elements/1.1/"
   xmlns:cc="http://creativecommons.org/ns#"
   xmlns:rdf="http://www.w3.org/1999/02/22-rdf-syntax-ns#"
   xmlns:svg="http://www.w3.org/2000/svg"
   xmlns="http://www.w3.org/2000/svg"
   xmlns:sodipodi="http://sodipodi.sourceforge.net/DTD/sodipodi-0.dtd"
   xmlns:inkscape="http://www.inkscape.org/namespaces/inkscape"
   version="1.1"
   id="Layer_1"
   x="0px"
   y="0px"
   width="400"
   height="250"
   viewBox="-0.7 0 399.99999 250.00001"
   enable-background="new 0 0 107.015 386.072"
   xml:space="preserve"
   sodipodi:docname="boomtop.svg"
   inkscape:version="0.92.1 r15371"><metadata
     id="metadata9"><rdf:RDF><cc:Work
         rdf:about=""><dc:format>image/svg+xml</dc:format><dc:type
           rdf:resource="http://purl.org/dc/dcmitype/StillImage" /><dc:title></dc:title></cc:Work></rdf:RDF></metadata><defs
     id="defs7" /><sodipodi:namedview
     pagecolor="#ffffff"
     bordercolor="#666666"
     borderopacity="1"
     objecttolerance="10"
     gridtolerance="10"
     guidetolerance="10"
     inkscape:pageopacity="0"
     inkscape:pageshadow="2"
     inkscape:window-width="1920"
     inkscape:window-height="1043"
     id="namedview5"
     showgrid="false"
     viewbox-x="-0.7"
     fit-margin-top="0"
     fit-margin-left="0"
     fit-margin-right="0"
     fit-margin-bottom="0"
     inkscape:zoom="1.2225699"
     inkscape:cx="255.19666"
     inkscape:cy="-26.925675"
     inkscape:window-x="1920"
     inkscape:window-y="0"
     inkscape:window-maximized="1"
     inkscape:current-layer="Layer_1" /><path
     style="fill:#e1ffe1;stroke-width:1.13765979"
     d="m 287.11703,25.072261 c -12.33051,0.333 -28.06741,6.666984 -31.46875,16.333985 -3.40264,9.667 -3.40165,80.333974 -3.82617,84.917964 -0.42452,4.584 -11.05669,9.41504 -17.85937,14.74804 -6.80399,5.333 -8.9289,10.66799 -10.63086,22.08399 -1.69938,11.416 -0.85171,24.583 6.99804,33.25 7.84846,8.667 19.36425,7.66601 23.19141,11.16601 3.82715,3.5 3.4019,9.83397 8.50391,15.16797 3.66796,3.832 7.1151,6.63325 16.58398,7.90625 v 19.35352 h 26.5957 l 0.19532,-19.42774 c 0.005,-0.443 -0.0151,-0.86348 -0.0449,-1.27148 11.49052,-4.404 14.90292,-14.57952 17.47852,-19.22852 1.94011,-3.5 6.00769,-5.06303 11.05664,-6.33203 7.68278,-1.934 27.21484,-12.00098 27.21484,-30.33398 0,-18.333 -10.63226,-21.66602 -17.01171,-26.66602 -6.37817,-5 -3.39844,-25.00097 -3.39844,-38.33397 0,-13.333001 -6.38038,-17.000001 -11.9082,-17.000001 -5.52914,0 -8.50413,10.666011 -13.60743,10.666011 -5.10331,0 -1.70045,-9.666281 -2.55078,-38.488281 -0.85037,-28.822002 -13.18124,-38.844718 -25.51175,-38.511718 z"
     id="path2"
     inkscape:connector-curvature="0" /></svg>