<?xml version="1.0" encoding="utf-8"?>
<!-- Generator: Adobe Illustrator 16.0.0, SVG Export Plug-In . SVG Version: 6.00 Build 0)  -->
<!DOCTYPE svg PUBLIC "-//W3C//DTD SVG 1.1//EN" "http://www.w3.org/Graphics/SVG/1.1/DTD/svg11.dtd">
<svg version="1.1" id="Layer_1" xmlns="http://www.w3.org/2000/svg" xmlns:xlink="http://www.w3.org/1999/xlink" x="0px" y="0px"
	 width="1045.203px" height="1056px" viewBox="-696.938 -1683.333 1045.203 1056"
	 enable-background="new -696.938 -1683.333 1045.203 1056" xml:space="preserve">
<g>
	<circle fill="#BDEBFF" cx="266.464" cy="-716.333" r="6.5"/>
	<circle fill="#BDEBFF" cx="238.664" cy="-827.949" r="6.5"/>
	<circle fill="#BDEBFF" cx="-114.436" cy="-697.449" r="6.5"/>
	<circle fill="#BDEBFF" cx="45.765" cy="-840.949" r="6.5"/>
</g>
<g>
	<circle fill="#BDEBFF" cx="-256.137" cy="-716.333" r="6.5"/>
	<circle fill="#BDEBFF" cx="-283.938" cy="-827.949" r="6.5"/>
	<circle fill="#BDEBFF" cx="-637.037" cy="-697.449" r="6.5"/>
	<circle fill="#BDEBFF" cx="-476.836" cy="-840.949" r="6.5"/>
</g>
<g>
	<circle fill="#BDEBFF" cx="140.365" cy="-955.252" r="6.5"/>
	<circle fill="#BDEBFF" cx="146.865" cy="-1225.449" r="6.5"/>
	<circle fill="#BDEBFF" cx="307.066" cy="-1368.949" r="6.5"/>
</g>
<g>
	<circle fill="#BDEBFF" cx="5.164" cy="-1244.333" r="6.5"/>
	<circle fill="#BDEBFF" cx="-129.137" cy="-897.833" r="6.5"/>
	<circle fill="#BDEBFF" cx="-382.236" cy="-955.252" r="6.5"/>
	<circle fill="#BDEBFF" cx="-22.637" cy="-1355.949" r="6.5"/>
	<circle fill="#BDEBFF" cx="5.164" cy="-1026.333" r="6.5"/>
	<circle fill="#BDEBFF" cx="-135.637" cy="-1136.833" r="6.5"/>
	<circle fill="#BDEBFF" cx="-375.736" cy="-1225.449" r="6.5"/>
	<circle fill="#BDEBFF" cx="-215.535" cy="-1368.949" r="6.5"/>
</g>
<g>
	<circle fill="#BDEBFF" cx="-517.438" cy="-1244.333" r="6.5"/>
	<circle fill="#BDEBFF" cx="-651.739" cy="-897.833" r="6.5"/>
	<circle fill="#BDEBFF" cx="-545.239" cy="-1355.949" r="6.5"/>
	<circle fill="#BDEBFF" cx="-517.438" cy="-1026.333" r="6.5"/>
	<circle fill="#BDEBFF" cx="-658.239" cy="-1136.833" r="6.5"/>
</g>
<g>
	<circle fill="#BDEBFF" cx="132.164" cy="-1425.833" r="6.5"/>
	<circle fill="#BDEBFF" cx="-120.936" cy="-1483.252" r="6.5"/>
	<circle fill="#BDEBFF" cx="266.464" cy="-1554.333" r="6.5"/>
	<circle fill="#BDEBFF" cx="125.664" cy="-1664.833" r="6.5"/>
</g>
<g>
	<circle fill="#BDEBFF" cx="-390.438" cy="-1425.833" r="6.5"/>
	<circle fill="#BDEBFF" cx="-643.537" cy="-1483.252" r="6.5"/>
	<circle fill="#BDEBFF" cx="-256.137" cy="-1554.333" r="6.5"/>
	<circle fill="#BDEBFF" cx="-396.938" cy="-1664.833" r="6.5"/>
</g>
</svg>
