<?xml version="1.0" encoding="UTF-8" standalone="no"?>
<!-- Created with Inkscape (http://www.inkscape.org/) -->

<svg
   xmlns:dc="http://purl.org/dc/elements/1.1/"
   xmlns:cc="http://creativecommons.org/ns#"
   xmlns:rdf="http://www.w3.org/1999/02/22-rdf-syntax-ns#"
   xmlns:svg="http://www.w3.org/2000/svg"
   xmlns="http://www.w3.org/2000/svg"
   xmlns:sodipodi="http://sodipodi.sourceforge.net/DTD/sodipodi-0.dtd"
   xmlns:inkscape="http://www.inkscape.org/namespaces/inkscape"
   width="10.659004mm"
   height="10.745085mm"
   viewBox="0 0 10.659004 10.745085"
   version="1.1"
   id="svg5243"
   inkscape:version="0.92.1 r15371"
   sodipodi:docname="droplet.svg"
   inkscape:export-filename="/home/lasbian/Projects/tussentuin/static/leaf.png"
   inkscape:export-xdpi="8597.2002"
   inkscape:export-ydpi="8597.2002">
  <defs
     id="defs5237" />
  <sodipodi:namedview
     id="base"
     pagecolor="#ffffff"
     bordercolor="#666666"
     borderopacity="1.0"
     inkscape:pageopacity="0.0"
     inkscape:pageshadow="2"
     inkscape:zoom="16.730378"
     inkscape:cx="36.813503"
     inkscape:cy="16.395955"
     inkscape:document-units="mm"
     inkscape:current-layer="layer1"
     showgrid="false"
     fit-margin-top="4"
     fit-margin-left="4"
     fit-margin-right="4"
     fit-margin-bottom="4"
     inkscape:window-width="1920"
     inkscape:window-height="1043"
     inkscape:window-x="1920"
     inkscape:window-y="0"
     inkscape:window-maximized="1" />
  <metadata
     id="metadata5240">
    <rdf:RDF>
      <cc:Work
         rdf:about="">
        <dc:format>image/svg+xml</dc:format>
        <dc:type
           rdf:resource="http://purl.org/dc/dcmitype/StillImage" />
        <dc:title></dc:title>
      </cc:Work>
    </rdf:RDF>
  </metadata>
  <g
     inkscape:label="Layer 1"
     inkscape:groupmode="layer"
     id="layer1"
     transform="translate(-140.56931,-95.07984)">
    <path
       inkscape:connector-curvature="0"
       d="m 158.51882,96.435891 c -10.93484,13.229179 10.93485,13.229179 0,0 z"
       id="path6-3"
       style="fill:none;stroke:#e3f6ff;stroke-width:1.20274198;stroke-linecap:round;stroke-linejoin:round;stroke-opacity:0.98672569" />
    <path
       inkscape:connector-curvature="0"
       id="path5072-6"
       style="fill:#c0e8ff;fill-opacity:1;stroke:none;stroke-width:0.16887061px;stroke-linecap:butt;stroke-linejoin:miter;stroke-opacity:1"
       d="m 145.93663,97.445402 -1.70582,2.664728 -0.26244,2.31145 1.25162,1.12039 2.19032,-0.19178 0.39365,-1.66545 -0.55515,-2.361923 -0.80749,-1.665448 z m -0.0453,-0.543266 a 0.38386415,0.38386415 0 0 0 -0.28796,0.139618 c -1.78482,2.159313 -2.29717,3.841856 -2.04315,5.071116 0.25402,1.22926 1.31141,1.88982 2.33859,1.88982 1.02718,0 2.08457,-0.66056 2.33859,-1.88982 0.25402,-1.22926 -0.25833,-2.911803 -2.04315,-5.071116 a 0.38386415,0.38386415 0 0 0 -0.30292,-0.139618 z m 0.007,1.104474 c 1.33849,1.782961 1.75276,3.14906 1.5869,3.95168 -0.18218,0.88163 -0.86929,1.2765 -1.5869,1.2765 -0.71761,0 -1.40472,-0.39487 -1.58691,-1.2765 -0.16585,-0.8026 0.24849,-2.168779 1.58691,-3.95168 z" />
  </g>
</svg>
