<?xml version="1.0" encoding="UTF-8" standalone="no"?>
<!-- Generator: Adobe Illustrator 16.0.0, SVG Export Plug-In . SVG Version: 6.00 Build 0)  -->

<svg
   xmlns:dc="http://purl.org/dc/elements/1.1/"
   xmlns:cc="http://creativecommons.org/ns#"
   xmlns:rdf="http://www.w3.org/1999/02/22-rdf-syntax-ns#"
   xmlns:svg="http://www.w3.org/2000/svg"
   xmlns="http://www.w3.org/2000/svg"
   xmlns:sodipodi="http://sodipodi.sourceforge.net/DTD/sodipodi-0.dtd"
   xmlns:inkscape="http://www.inkscape.org/namespaces/inkscape"
   version="1.1"
   id="Layer_1"
   x="0px"
   y="0px"
   width="23.200594"
   height="24.6521"
   viewBox="0 0 23.200595 24.652099"
   enable-background="new 0 0 20.755 14.942"
   xml:space="preserve"
   sodipodi:docname="favicon.svg"
   inkscape:version="0.92.1 r15371"><metadata
     id="metadata9"><rdf:RDF><cc:Work
         rdf:about=""><dc:format>image/svg+xml</dc:format><dc:type
           rdf:resource="http://purl.org/dc/dcmitype/StillImage" /><dc:title></dc:title></cc:Work></rdf:RDF></metadata><defs
     id="defs7" /><sodipodi:namedview
     pagecolor="#ffffff"
     bordercolor="#666666"
     borderopacity="1"
     objecttolerance="10"
     gridtolerance="10"
     guidetolerance="10"
     inkscape:pageopacity="0"
     inkscape:pageshadow="2"
     inkscape:window-width="1920"
     inkscape:window-height="1016"
     id="namedview5"
     showgrid="false"
     fit-margin-top="3"
     fit-margin-left="3"
     fit-margin-right="3"
     fit-margin-bottom="3"
     inkscape:zoom="55.343411"
     inkscape:cx="11.600297"
     inkscape:cy="11.756422"
     inkscape:window-x="0"
     inkscape:window-y="27"
     inkscape:window-maximized="1"
     inkscape:current-layer="Layer_1" /><path
     d="m 20.139114,3.010179 c 0,0 -21.5004117,3.439197 -16.3390729,17.716609 l 2.286724,-2.553057 -0.518513,-5.127418 c -0.02697,-0.258878 0.16133,-0.494419 0.421896,-0.515635 0.258878,-0.02697 0.490017,0.160537 0.515635,0.421896 l 0.432227,4.272115 1.061669,-1.183778 -0.516784,-5.09666 c -0.02697,-0.258878 0.160371,-0.494137 0.421616,-0.516595 0.2591579,-0.02601 0.4893389,0.161779 0.5165939,0.421615 l 0.429256,4.24068 1.047777,-1.167196 -0.516785,-5.09666 c -0.02601,-0.259159 0.16229,-0.4947 0.422857,-0.515917 0.258877,-0.02697 0.489339,0.161779 0.515071,0.419978 l 0.42982,4.242599 3.231321,-3.606608 c 0.172646,-0.196556 0.471864,-0.210354 0.664301,-0.03754 0.194918,0.174169 0.211595,0.472543 0.03686,0.665542 l -3.220815,3.596231 4.420262,-0.190143 c 0.260503,-0.01078 0.479106,0.190835 0.490841,0.451057 0.0094,0.220265 -0.134301,0.412495 -0.337726,0.47218 -0.0355,0.01042 -0.07433,0.0166 -0.113611,0.0177 l -5.340998,0.231014 -1.016266,1.136065 4.420262,-0.190143 c 0.261462,-0.01106 0.481024,0.190271 0.491519,0.449815 0.0094,0.220265 -0.134979,0.413736 -0.338404,0.473421 -0.03646,0.0107 -0.07433,0.0166 -0.113612,0.0177 L 8.683957,16.689497 7.6806251,17.809261 12.068888,17.62017 c 0.258302,-0.01117 0.478824,0.189875 0.490841,0.451056 0.0097,0.221225 -0.135261,0.412777 -0.337726,0.47218 -0.0355,0.01042 -0.07461,0.01564 -0.11333,0.01866 L 6.8013111,18.79051 4.4994531,21.359471 C 19.781174,24.377218 20.200594,3.05988 20.200594,3.05988 L 20.198694,3 Z"
     id="path2"
     inkscape:connector-curvature="0"
     style="fill:#6cff70" /></svg>