<?xml version="1.0" encoding="utf-8"?>
<!-- Generator: Adobe Illustrator 16.0.0, SVG Export Plug-In . SVG Version: 6.00 Build 0)  -->
<!DOCTYPE svg PUBLIC "-//W3C//DTD SVG 1.1//EN" "http://www.w3.org/Graphics/SVG/1.1/DTD/svg11.dtd">
<svg version="1.1" id="Layer_1" xmlns="http://www.w3.org/2000/svg" xmlns:xlink="http://www.w3.org/1999/xlink" x="0px" y="0px"
	 width="64.041px" height="33.048px" viewBox="0 0 64.041 33.048" enable-background="new 0 0 64.041 33.048" xml:space="preserve">
<g>
	<path fill="#6CFF70" d="M53.106,21.259v-7.011v-2.579v-2.19H2.595v4.769h2.201v7.426h25.691v4.353h1.724v7.021h31.829v-7.021
		v-2.578v-2.189H53.106z M43.515,10.781l5.664,5.198v-4.947h2.006v9.177l-5.654-5.232v5.016h-2.016V10.781z M35.827,11.032h5.222
		v1.631h-3.215v1.949h2.848v1.618h-2.848v2.063h3.488v1.699h-5.495V11.032z M10.517,12.663H8.66v7.329H6.652v-7.329H4.796v-1.631
		h5.721V12.663z M19.435,16.515c0,1.893-0.98,3.601-3.602,3.601c-2.611,0-3.682-1.606-3.682-3.601V11.18h2.006v5.175
		c0,1.369,0.478,1.984,1.686,1.984c1.199,0,1.585-0.627,1.585-1.984V11.18h2.006V16.515z M23.816,20.082
		c-0.888,0-2.006-0.158-3.146-1.036l1.107-1.504c0.546,0.422,1.298,0.901,2.141,0.901c0.617,0,1.05-0.252,1.05-0.901
		c0-0.433-0.365-0.73-0.649-0.878l-1.574-0.82c-1.105-0.582-1.812-1.344-1.812-2.462c0-1.492,1.3-2.498,3.022-2.498
		c0.922,0,1.914,0.195,2.77,0.822l-1.027,1.447c-0.524-0.457-1.219-0.66-1.743-0.66c-0.594,0-1.026,0.272-1.026,0.808
		c0,0.538,0.308,0.741,0.774,0.98l1.231,0.616c1.061,0.523,2.052,1.254,2.052,2.53C26.985,18.943,25.937,20.082,23.816,20.082z
		 M30.75,20.082c-0.889,0-2.006-0.158-3.146-1.036l1.106-1.504c0.548,0.422,1.299,0.901,2.144,0.901
		c0.613,0,1.047-0.252,1.047-0.901c0-0.433-0.364-0.73-0.649-0.878l-1.573-0.82c-1.106-0.582-1.813-1.344-1.813-2.462
		c0-1.492,1.299-2.498,3.021-2.498c0.923,0,1.915,0.195,2.77,0.822l-1.025,1.447c-0.525-0.457-1.22-0.66-1.745-0.66
		c-0.593,0-1.026,0.272-1.026,0.808c0,0.538,0.307,0.741,0.776,0.98l1.229,0.616c1.061,0.523,2.052,1.254,2.052,2.53
		C33.919,18.943,32.87,20.082,30.75,20.082z M38.708,24.166h-1.859v7.33h-2.006v-7.33h-1.859v-1.629h5.725V24.166z M47.625,28.02
		c0,1.892-0.979,3.601-3.602,3.601c-2.612,0-3.682-1.607-3.682-3.601v-5.335h2.006v5.175c0,1.368,0.479,1.983,1.688,1.983
		c1.194,0,1.583-0.627,1.583-1.983v-5.175h2.006V28.02z M51.88,31.496h-2.004v-8.959h2.004V31.496z M61.893,31.71l-5.654-5.229
		v5.015h-2.018v-9.209l5.666,5.198v-4.948h2.006V31.71z"/>
	<g>
		<path fill="#6CFF70" d="M1.906,5.572C1.367,5.572,0.69,5.475,0,4.943l0.669-0.91c0.332,0.253,0.788,0.544,1.299,0.544
			c0.372,0,0.635-0.152,0.635-0.544c0-0.263-0.222-0.444-0.394-0.533L1.256,3.002C0.587,2.652,0.159,2.188,0.159,1.511
			C0.159,0.606,0.946,0,1.99,0c0.559,0,1.159,0.117,1.677,0.497L3.045,1.373c-0.317-0.275-0.738-0.4-1.055-0.4
			c-0.359,0-0.623,0.167-0.623,0.491c0,0.323,0.188,0.448,0.47,0.593l0.747,0.374c0.642,0.317,1.243,0.758,1.243,1.532
			C3.826,4.882,3.191,5.572,1.906,5.572z"/>
		<path fill="#6CFF70" d="M5.765,3.141v0.836c0,0.477,0.021,0.553,0.504,0.553h0.083v0.987H5.813c-0.809,0-1.194-0.325-1.194-1.285
			V3.127H4.127v-0.85h0.498V0.993H5.75v1.285h0.656v0.863H5.765z"/>
		<path fill="#6CFF70" d="M6.958,1.718v-1.05h1.147v1.05H6.958z M6.958,5.517V2.278h1.147v3.239H6.958z"/>
		<path fill="#6CFF70" d="M10.41,5.621c-1.035,0-1.74-0.69-1.74-1.714c0-0.967,0.643-1.747,1.768-1.747
			c0.344,0,0.87,0.048,1.34,0.519l-0.759,0.752c-0.138-0.207-0.339-0.317-0.546-0.317c-0.442,0-0.747,0.283-0.747,0.739
			c0,0.551,0.332,0.833,0.726,0.833c0.255,0,0.469-0.145,0.579-0.366l0.843,0.587C11.68,5.192,11.28,5.621,10.41,5.621z"/>
		<path fill="#6CFF70" d="M14.4,5.517V3.619c0-0.4-0.242-0.525-0.483-0.525c-0.263,0-0.463,0.172-0.463,0.518v1.906h-1.146V0.083
			h1.146v2.458c0.207-0.222,0.601-0.339,0.898-0.339c0.718,0,1.194,0.416,1.194,1.217v2.099H14.4z"/>
		<path fill="#6CFF70" d="M17.705,3.141v0.836c0,0.477,0.021,0.553,0.504,0.553h0.083v0.987h-0.538
			c-0.808,0-1.195-0.325-1.195-1.285V3.127h-0.491v-0.85h0.497V0.993h1.126v1.285h0.656v0.863H17.705z"/>
		<path fill="#6CFF70" d="M18.899,1.718v-1.05h1.146v1.05H18.899z M18.899,5.517V2.278h1.146v3.239H18.899z"/>
		<path fill="#6CFF70" d="M23.013,5.517v-1.85c0-0.339-0.137-0.573-0.448-0.573c-0.325,0-0.498,0.178-0.498,0.565v1.858h-1.146
			V2.278h1.146v0.256c0.153-0.173,0.539-0.333,0.878-0.333c0.676,0,1.214,0.353,1.214,1.209v2.106H23.013z"/>
		<path fill="#6CFF70" d="M26.741,7.077c-0.774,0-1.409-0.221-1.851-0.413l0.448-0.767c0.31,0.173,0.85,0.326,1.216,0.326
			c0.6,0,0.655-0.444,0.635-0.975c-0.187,0.186-0.531,0.366-0.85,0.366c-1.278,0-1.629-0.918-1.629-1.803
			c0-0.759,0.435-1.61,1.581-1.61c0.442,0,0.711,0.208,0.844,0.339V2.278h1.146v2.936C28.28,5.993,28.245,7.077,26.741,7.077z
			 M26.526,3.1c-0.421,0-0.634,0.372-0.634,0.821c0,0.457,0.242,0.781,0.648,0.781c0.436,0,0.635-0.365,0.635-0.843
			C27.175,3.411,26.955,3.1,26.526,3.1z"/>
	</g>
</g>
</svg>
