<?xml version="1.0" encoding="UTF-8" standalone="no"?>
<!-- Generator: Adobe Illustrator 16.0.0, SVG Export Plug-In . SVG Version: 6.00 Build 0)  -->

<svg
   xmlns:dc="http://purl.org/dc/elements/1.1/"
   xmlns:cc="http://creativecommons.org/ns#"
   xmlns:rdf="http://www.w3.org/1999/02/22-rdf-syntax-ns#"
   xmlns:svg="http://www.w3.org/2000/svg"
   xmlns="http://www.w3.org/2000/svg"
   xmlns:sodipodi="http://sodipodi.sourceforge.net/DTD/sodipodi-0.dtd"
   xmlns:inkscape="http://www.inkscape.org/namespaces/inkscape"
   version="1.1"
   id="Layer_1"
   x="0px"
   y="0px"
   width="200"
   height="103.21049"
   viewBox="0 0 200 103.21049"
   enable-background="new 0 0 64.041 33.048"
   xml:space="preserve"
   sodipodi:docname="LogoAnim.svg"
   inkscape:version="0.92.1 r15371"><metadata
     id="metadata31"><rdf:RDF><cc:Work
         rdf:about=""><dc:format>image/svg+xml</dc:format><dc:type
           rdf:resource="http://purl.org/dc/dcmitype/StillImage" /><dc:title></dc:title></cc:Work></rdf:RDF></metadata><defs
     id="defs29" /><sodipodi:namedview
     pagecolor="#ffffff"
     bordercolor="#666666"
     borderopacity="1"
     objecttolerance="10"
     gridtolerance="10"
     guidetolerance="10"
     inkscape:pageopacity="0"
     inkscape:pageshadow="2"
     inkscape:window-width="1920"
     inkscape:window-height="1016"
     id="namedview27"
     showgrid="false"
     fit-margin-top="0"
     fit-margin-left="0"
     fit-margin-right="0"
     fit-margin-bottom="0"
     inkscape:zoom="4.8718789"
     inkscape:cx="32.431019"
     inkscape:cy="16.524"
     inkscape:window-x="0"
     inkscape:window-y="27"
     inkscape:window-maximized="1"
     inkscape:current-layer="Layer_1" /><g
     id="g24"
     transform="scale(3.1230481)"><path
       d="M 53.106,21.259 V 14.248 11.669 9.479 H 2.595 v 4.769 h 2.201 v 7.426 h 25.691 v 4.353 h 1.724 v 7.021 H 64.04 V 26.027 23.449 21.26 H 53.106 Z m -9.591,-10.478 5.664,5.198 v -4.947 h 2.006 v 9.177 l -5.654,-5.232 v 5.016 h -2.016 z m -7.688,0.251 h 5.222 v 1.631 h -3.215 v 1.949 h 2.848 v 1.618 h -2.848 v 2.063 h 3.488 v 1.699 h -5.495 z m -25.31,1.631 H 8.66 v 7.329 H 6.652 V 12.663 H 4.796 v -1.631 h 5.721 z m 8.918,3.852 c 0,1.893 -0.98,3.601 -3.602,3.601 -2.611,0 -3.682,-1.606 -3.682,-3.601 V 11.18 h 2.006 v 5.175 c 0,1.369 0.478,1.984 1.686,1.984 1.199,0 1.585,-0.627 1.585,-1.984 V 11.18 h 2.006 v 5.335 z m 4.381,3.567 c -0.888,0 -2.006,-0.158 -3.146,-1.036 l 1.107,-1.504 c 0.546,0.422 1.298,0.901 2.141,0.901 0.617,0 1.05,-0.252 1.05,-0.901 0,-0.433 -0.365,-0.73 -0.649,-0.878 l -1.574,-0.82 C 21.64,15.262 20.933,14.5 20.933,13.382 c 0,-1.492 1.3,-2.498 3.022,-2.498 0.922,0 1.914,0.195 2.77,0.822 l -1.027,1.447 c -0.524,-0.457 -1.219,-0.66 -1.743,-0.66 -0.594,0 -1.026,0.272 -1.026,0.808 0,0.538 0.308,0.741 0.774,0.98 l 1.231,0.616 c 1.061,0.523 2.052,1.254 2.052,2.53 -0.001,1.516 -1.049,2.655 -3.17,2.655 z m 6.934,0 c -0.889,0 -2.006,-0.158 -3.146,-1.036 l 1.106,-1.504 c 0.548,0.422 1.299,0.901 2.144,0.901 0.613,0 1.047,-0.252 1.047,-0.901 0,-0.433 -0.364,-0.73 -0.649,-0.878 l -1.573,-0.82 c -1.106,-0.582 -1.813,-1.344 -1.813,-2.462 0,-1.492 1.299,-2.498 3.021,-2.498 0.923,0 1.915,0.195 2.77,0.822 l -1.025,1.447 c -0.525,-0.457 -1.22,-0.66 -1.745,-0.66 -0.593,0 -1.026,0.272 -1.026,0.808 0,0.538 0.307,0.741 0.776,0.98 l 1.229,0.616 c 1.061,0.523 2.052,1.254 2.052,2.53 10e-4,1.516 -1.048,2.655 -3.168,2.655 z m 7.958,4.084 h -1.859 v 7.33 h -2.006 v -7.33 h -1.859 v -1.629 h 5.725 v 1.629 z m 8.917,3.854 c 0,1.892 -0.979,3.601 -3.602,3.601 -2.612,0 -3.682,-1.607 -3.682,-3.601 v -5.335 h 2.006 v 5.175 c 0,1.368 0.479,1.983 1.688,1.983 1.194,0 1.583,-0.627 1.583,-1.983 v -5.175 h 2.006 v 5.335 z m 4.255,3.476 h -2.004 v -8.959 h 2.004 z m 10.013,0.214 -5.654,-5.229 v 5.015 h -2.018 v -9.209 l 5.666,5.198 v -4.948 h 2.006 z"
       id="path2"
       inkscape:connector-curvature="0"
       style="fill:#6cff70" /><g
       id="g22"><path
         d="M 1.906,5.572 C 1.367,5.572 0.69,5.475 0,4.943 L 0.669,4.033 C 1.001,4.286 1.457,4.577 1.968,4.577 2.34,4.577 2.603,4.425 2.603,4.033 2.603,3.77 2.381,3.589 2.209,3.5 L 1.256,3.002 C 0.587,2.652 0.159,2.188 0.159,1.511 0.159,0.606 0.946,0 1.99,0 2.549,0 3.149,0.117 3.667,0.497 L 3.045,1.373 C 2.728,1.098 2.307,0.973 1.99,0.973 c -0.359,0 -0.623,0.167 -0.623,0.491 0,0.323 0.188,0.448 0.47,0.593 L 2.584,2.431 C 3.226,2.748 3.827,3.189 3.827,3.963 3.826,4.882 3.191,5.572 1.906,5.572 Z"
         id="path4"
         inkscape:connector-curvature="0"
         style="fill:#6cff70" /><path
         d="m 5.765,3.141 v 0.836 c 0,0.477 0.021,0.553 0.504,0.553 H 6.352 V 5.517 H 5.813 C 5.004,5.517 4.619,5.192 4.619,4.232 V 3.127 H 4.127 V 2.277 H 4.625 V 0.993 H 5.75 v 1.285 h 0.656 v 0.863 z"
         id="path6"
         inkscape:connector-curvature="0"
         style="fill:#6cff70" /><path
         d="m 6.958,1.718 v -1.05 h 1.147 v 1.05 z m 0,3.799 V 2.278 h 1.147 v 3.239 z"
         id="path8"
         inkscape:connector-curvature="0"
         style="fill:#6cff70" /><path
         d="m 10.41,5.621 c -1.035,0 -1.74,-0.69 -1.74,-1.714 0,-0.967 0.643,-1.747 1.768,-1.747 0.344,0 0.87,0.048 1.34,0.519 L 11.019,3.431 C 10.881,3.224 10.68,3.114 10.473,3.114 c -0.442,0 -0.747,0.283 -0.747,0.739 0,0.551 0.332,0.833 0.726,0.833 0.255,0 0.469,-0.145 0.579,-0.366 l 0.843,0.587 C 11.68,5.192 11.28,5.621 10.41,5.621 Z"
         id="path10"
         inkscape:connector-curvature="0"
         style="fill:#6cff70" /><path
         d="M 14.4,5.517 V 3.619 c 0,-0.4 -0.242,-0.525 -0.483,-0.525 -0.263,0 -0.463,0.172 -0.463,0.518 V 5.518 H 12.308 V 0.083 h 1.146 v 2.458 c 0.207,-0.222 0.601,-0.339 0.898,-0.339 0.718,0 1.194,0.416 1.194,1.217 V 5.518 H 14.4 Z"
         id="path12"
         inkscape:connector-curvature="0"
         style="fill:#6cff70" /><path
         d="m 17.705,3.141 v 0.836 c 0,0.477 0.021,0.553 0.504,0.553 h 0.083 v 0.987 h -0.538 c -0.808,0 -1.195,-0.325 -1.195,-1.285 V 3.127 h -0.491 v -0.85 h 0.497 V 0.993 h 1.126 v 1.285 h 0.656 v 0.863 z"
         id="path14"
         inkscape:connector-curvature="0"
         style="fill:#6cff70" /><path
         d="m 18.899,1.718 v -1.05 h 1.146 v 1.05 z m 0,3.799 V 2.278 h 1.146 v 3.239 z"
         id="path16"
         inkscape:connector-curvature="0"
         style="fill:#6cff70" /><path
         d="m 23.013,5.517 v -1.85 c 0,-0.339 -0.137,-0.573 -0.448,-0.573 -0.325,0 -0.498,0.178 -0.498,0.565 V 5.517 H 20.921 V 2.278 h 1.146 v 0.256 c 0.153,-0.173 0.539,-0.333 0.878,-0.333 0.676,0 1.214,0.353 1.214,1.209 v 2.106 h -1.146 z"
         id="path18"
         inkscape:connector-curvature="0"
         style="fill:#6cff70" /><path
         d="m 26.741,7.077 c -0.774,0 -1.409,-0.221 -1.851,-0.413 l 0.448,-0.767 c 0.31,0.173 0.85,0.326 1.216,0.326 0.6,0 0.655,-0.444 0.635,-0.975 -0.187,0.186 -0.531,0.366 -0.85,0.366 -1.278,0 -1.629,-0.918 -1.629,-1.803 0,-0.759 0.435,-1.61 1.581,-1.61 0.442,0 0.711,0.208 0.844,0.339 V 2.278 h 1.146 V 5.214 C 28.28,5.993 28.245,7.077 26.741,7.077 Z M 26.526,3.1 c -0.421,0 -0.634,0.372 -0.634,0.821 0,0.457 0.242,0.781 0.648,0.781 0.436,0 0.635,-0.365 0.635,-0.843 0,-0.448 -0.22,-0.759 -0.649,-0.759 z"
         id="path20"
         inkscape:connector-curvature="0"
         style="fill:#6cff70" /></g></g></svg>