<?xml version="1.0" encoding="utf-8"?>
<!-- Generator: Adobe Illustrator 16.0.0, SVG Export Plug-In . SVG Version: 6.00 Build 0)  -->
<!DOCTYPE svg PUBLIC "-//W3C//DTD SVG 1.1//EN" "http://www.w3.org/Graphics/SVG/1.1/DTD/svg11.dtd">
<svg version="1.1" id="Layer_1" xmlns="http://www.w3.org/2000/svg" xmlns:xlink="http://www.w3.org/1999/xlink" x="0px" y="0px"
	 width="150px" height="247.164px" viewBox="0 0 150 247.164" enable-background="new 0 0 150 247.164" xml:space="preserve">
<g>
	<polygon fill="#EBFFEB" points="150,0 115.891,0 120.301,8.803 117.932,9.989 112.928,0 0,0 0,247.164 112.928,247.164 
		108.519,238.36 110.887,237.174 115.891,247.164 150,247.164 	"/>
	<g>
		<g>
			
				<rect x="34.534" y="35.388" transform="matrix(0.7072 0.7071 -0.7071 0.7072 37.4254 -16.9382)" fill="#6CFF70" width="9.255" height="2.649"/>
		</g>
	</g>
	<g>
		<g>
			
				<rect x="28.899" y="122.257" transform="matrix(0.448 0.894 -0.894 0.448 132.2419 32.9873)" fill="#6CFF70" width="21.019" height="2.65"/>
		</g>
		<g>
			
				<rect x="108.705" y="82.793" transform="matrix(0.8112 0.5848 -0.5848 0.8112 73.321 -47.3782)" fill="#6CFF70" width="2.649" height="14.123"/>
		</g>
		<g>
			
				<rect x="109.537" y="158.97" transform="matrix(0.7071 0.7071 -0.7071 0.7071 146.7831 -33.7779)" fill="#6CFF70" width="9.256" height="2.648"/>
		</g>
	</g>
	<g>
		<g>
			
				<rect x="33.704" y="206.375" transform="matrix(0.8112 0.5848 -0.5848 0.8112 131.4291 19.8161)" fill="#6CFF70" width="2.649" height="14.122"/>
		</g>
	</g>
	<polygon fill="#6CFF70" points="120.301,8.803 115.891,0 112.928,0 117.932,9.989 	"/>
	<polygon fill="#6CFF70" points="108.519,238.36 112.928,247.164 115.891,247.164 110.887,237.174 	"/>
</g>
</svg>
