<?xml version="1.0" encoding="utf-8"?>
<!-- Generator: Adobe Illustrator 16.0.0, SVG Export Plug-In . SVG Version: 6.00 Build 0)  -->
<!DOCTYPE svg PUBLIC "-//W3C//DTD SVG 1.1//EN" "http://www.w3.org/Graphics/SVG/1.1/DTD/svg11.dtd">
<svg version="1.1" id="Layer_1" xmlns="http://www.w3.org/2000/svg" xmlns:xlink="http://www.w3.org/1999/xlink" x="0px" y="0px"
	 width="150px" height="247.164px" viewBox="0 0 150 247.164" enable-background="new 0 0 150 247.164" xml:space="preserve">
<polygon fill="#FFFFFF" points="150,0 115.891,0 120.301,8.804 117.932,9.989 112.928,0 0,0 0,247.164 112.928,247.164 
	108.52,238.359 110.887,237.175 115.891,247.164 150,247.164 "/>
<g>
	<g>
		
			<rect x="34.534" y="35.388" transform="matrix(0.7072 0.7071 -0.7071 0.7072 37.4258 -16.9381)" fill="#BBFFBB" width="9.255" height="2.649"/>
	</g>
</g>
<g>
	<g>
		
			<rect x="28.903" y="122.262" transform="matrix(0.448 0.894 -0.894 0.448 132.2445 32.9829)" fill="#BBFFBB" width="21.017" height="2.65"/>
	</g>
	<g>
		
			<rect x="108.705" y="82.799" transform="matrix(0.8113 0.5846 -0.5846 0.8113 73.2953 -47.3694)" fill="#BBFFBB" width="2.649" height="14.124"/>
	</g>
	<g>
		
			<rect x="109.538" y="158.97" transform="matrix(0.7071 0.7071 -0.7071 0.7071 146.7829 -33.7784)" fill="#BBFFBB" width="9.256" height="2.648"/>
	</g>
</g>
<g>
	<g>
		
			<rect x="33.704" y="206.391" transform="matrix(0.8112 0.5847 -0.5847 0.8112 131.4172 19.8083)" fill="#BBFFBB" width="2.649" height="14.121"/>
	</g>
</g>
<polygon fill="#BBFFBB" points="120.301,8.804 115.891,0 112.928,0 117.932,9.989 "/>
<polygon fill="#BBFFBB" points="108.52,238.359 112.928,247.164 115.891,247.164 110.887,237.175 "/>
</svg>
