<svg version="1.1"
      xmlns="http://www.w3.org/2000/svg"
      xmlns:xlink="http://www.w3.org/1999/xlink"  id="snapshot-20737" width="400" height="400" viewBox="0 0 400 400"><desc>This image was made on Patterninja.com</desc><defs>
<!-- image 88069 -->
<g id="transformed-88069" data-image="88069" transform="translate(146.29782923981418, 162.31691496392915) rotate(282, 66.70217076018582, 67.68308503607086)"><g><svg version="1.1" width="133.40434152037164px" height="135.36617007214173px" viewBox="0 0 133.40434152037164 135.36617007214173"><g id="original-88069"><svg xmlns="http://www.w3.org/2000/svg" viewBox="0 0 10.659 10.745" xmlns:xlink="http://www.w3.org/1999/xlink" version="1.1" preserveAspectRatio="xMidYMid meet">
  <path stroke-width=".132" d="M4.176 4.193c-.07.073-.289.957.197 1.499.464.517 1.38.925 2.22.987-.131-.807-.24-1.66-.914-2.249-.689-.603-1.456-.287-1.503-.237z" stroke-linecap="round" stroke-linejoin="round" fill="rgba(0, 255, 0, 0.25)" stroke="rgba(0, 255, 0, 0.25)"/>
</svg>
</g></svg></g></g>
<!-- /image 88069 -->

<!-- image 82979 -->
<g id="transformed-82979" data-image="82979" transform="translate(-56.47666714587889, -58.46897107449476) rotate(353, 67.47666714587889, 68.46897107449476)"><g><svg version="1.1" width="134.95333429175778px" height="136.93794214898952px" viewBox="0 0 134.95333429175778 136.93794214898952"><g id="original-82979"><svg xmlns="http://www.w3.org/2000/svg" viewBox="0 0 10.659 10.745" xmlns:xlink="http://www.w3.org/1999/xlink" version="1.1" preserveAspectRatio="xMidYMid meet">
  <path stroke-width=".132" d="M4.176 4.193c-.07.073-.289.957.197 1.499.464.517 1.38.925 2.22.987-.131-.807-.24-1.66-.914-2.249-.689-.603-1.456-.287-1.503-.237z" stroke-linecap="round" stroke-linejoin="round" fill="rgba(0, 255, 0, 0.25)" stroke="rgba(0, 255, 0, 0.25)"/>
</svg>
</g></svg></g></g>
<!-- /image 82979 -->
</defs><rect x="0" y="0" width="400" height="400" fill="rgba(236, 255, 236, 0.5)"></rect><use xlink:href="#transformed-88069" transform="translate(-400, -400)"></use><use xlink:href="#transformed-88069" transform="translate(0, -400)"></use><use xlink:href="#transformed-88069" transform="translate(400, -400)"></use><use xlink:href="#transformed-88069" transform="translate(-400, 0)"></use><use xlink:href="#transformed-88069" transform="translate(0, 0)"></use><use xlink:href="#transformed-88069" transform="translate(400, 0)"></use><use xlink:href="#transformed-88069" transform="translate(-400, 400)"></use><use xlink:href="#transformed-88069" transform="translate(0, 400)"></use><use xlink:href="#transformed-88069" transform="translate(400, 400)"></use><use xlink:href="#transformed-82979" transform="translate(-400, -400)"></use><use xlink:href="#transformed-82979" transform="translate(0, -400)"></use><use xlink:href="#transformed-82979" transform="translate(400, -400)"></use><use xlink:href="#transformed-82979" transform="translate(-400, 0)"></use><use xlink:href="#transformed-82979" transform="translate(0, 0)"></use><use xlink:href="#transformed-82979" transform="translate(400, 0)"></use><use xlink:href="#transformed-82979" transform="translate(-400, 400)"></use><use xlink:href="#transformed-82979" transform="translate(0, 400)"></use><use xlink:href="#transformed-82979" transform="translate(400, 400)"></use></svg>
