<svg version="1.1"
      xmlns="http://www.w3.org/2000/svg"
      xmlns:xlink="http://www.w3.org/1999/xlink"  id="snapshot-01800" width="400" height="400" viewBox="0 0 400 400"><desc>This image was made on Patterninja.com</desc><defs>
<!-- image 34256 -->
<g id="transformed-34256" data-image="34256" transform="translate(58.99717236891017, 90.95673976657594) rotate(1, 103.00282763108983, 104.04326023342406)"><g><svg version="1.1" width="206.00565526217966px" height="208.08652046684813px" viewBox="0 0 206.00565526217966 208.08652046684813"><g id="original-34256"><svg xmlns="http://www.w3.org/2000/svg" viewBox="0 0 10.659 10.745" xmlns:xlink="http://www.w3.org/1999/xlink" version="1.1" preserveAspectRatio="xMidYMid meet">
  <path stroke-width="1.203" d="M17.95 1.356c-10.935 13.23 10.934 13.23 0 0z" stroke-linecap="round" stroke-linejoin="round" fill="rgba(0, 0, 0, 1)" stroke="rgba(227, 246, 255, 0.987)"/>
  <path d="M5.367 2.366L3.662 5.03l-.263 2.312 1.252 1.12 2.19-.192.394-1.665-.555-2.362-.808-1.665zm-.045-.544a.384.384 0 0 0-.288.14C3.25 4.122 2.737 5.804 2.991 7.033c.254 1.23 1.311 1.89 2.339 1.89 1.027 0 2.084-.66 2.338-1.89S7.41 4.121 5.625 1.962a.384.384 0 0 0-.303-.14zm.007 1.105C6.668 4.71 7.082 6.076 6.916 6.878c-.182.882-.87 1.277-1.587 1.277-.718 0-1.405-.395-1.587-1.277-.166-.802.249-2.168 1.587-3.951z" fill="rgba(192, 232, 255, 1)" stroke="none"/>
</svg>
</g></svg></g></g>
<!-- /image 34256 -->

<!-- image 93278 -->
<g id="transformed-93278" data-image="93278" transform="translate(266.9971723689102, -104.04326023342406) rotate(1, 103.00282763108983, 104.04326023342406)"><g><svg version="1.1" width="206.00565526217966px" height="208.08652046684813px" viewBox="0 0 206.00565526217966 208.08652046684813"><g id="original-93278"><svg xmlns="http://www.w3.org/2000/svg" viewBox="0 0 10.659 10.745" xmlns:xlink="http://www.w3.org/1999/xlink" version="1.1" preserveAspectRatio="xMidYMid meet">
  <path stroke-width="1.203" d="M17.95 1.356c-10.935 13.23 10.934 13.23 0 0z" stroke-linecap="round" stroke-linejoin="round" fill="rgba(0, 0, 0, 1)" stroke="rgba(227, 246, 255, 0.987)"/>
  <path d="M5.367 2.366L3.662 5.03l-.263 2.312 1.252 1.12 2.19-.192.394-1.665-.555-2.362-.808-1.665zm-.045-.544a.384.384 0 0 0-.288.14C3.25 4.122 2.737 5.804 2.991 7.033c.254 1.23 1.311 1.89 2.339 1.89 1.027 0 2.084-.66 2.338-1.89S7.41 4.121 5.625 1.962a.384.384 0 0 0-.303-.14zm.007 1.105C6.668 4.71 7.082 6.076 6.916 6.878c-.182.882-.87 1.277-1.587 1.277-.718 0-1.405-.395-1.587-1.277-.166-.802.249-2.168 1.587-3.951z" fill="rgba(192, 232, 255, 1)" stroke="none"/>
</svg>
</g></svg></g></g>
<!-- /image 93278 -->
</defs><rect x="0" y="0" width="400" height="400" fill="rgba(227, 246, 255, 1)"></rect><use xlink:href="#transformed-34256" transform="translate(-400, -400)"></use><use xlink:href="#transformed-34256" transform="translate(0, -400)"></use><use xlink:href="#transformed-34256" transform="translate(400, -400)"></use><use xlink:href="#transformed-34256" transform="translate(-400, 0)"></use><use xlink:href="#transformed-34256" transform="translate(0, 0)"></use><use xlink:href="#transformed-34256" transform="translate(400, 0)"></use><use xlink:href="#transformed-34256" transform="translate(-400, 400)"></use><use xlink:href="#transformed-34256" transform="translate(0, 400)"></use><use xlink:href="#transformed-34256" transform="translate(400, 400)"></use><use xlink:href="#transformed-93278" transform="translate(-400, -400)"></use><use xlink:href="#transformed-93278" transform="translate(0, -400)"></use><use xlink:href="#transformed-93278" transform="translate(400, -400)"></use><use xlink:href="#transformed-93278" transform="translate(-400, 0)"></use><use xlink:href="#transformed-93278" transform="translate(0, 0)"></use><use xlink:href="#transformed-93278" transform="translate(400, 0)"></use><use xlink:href="#transformed-93278" transform="translate(-400, 400)"></use><use xlink:href="#transformed-93278" transform="translate(0, 400)"></use><use xlink:href="#transformed-93278" transform="translate(400, 400)"></use></svg>