<?xml version="1.0" encoding="UTF-8" standalone="no"?>
<!-- Generator: Adobe Illustrator 16.0.0, SVG Export Plug-In . SVG Version: 6.00 Build 0)  -->

<svg
   xmlns:dc="http://purl.org/dc/elements/1.1/"
   xmlns:cc="http://creativecommons.org/ns#"
   xmlns:rdf="http://www.w3.org/1999/02/22-rdf-syntax-ns#"
   xmlns:svg="http://www.w3.org/2000/svg"
   xmlns="http://www.w3.org/2000/svg"
   xmlns:sodipodi="http://sodipodi.sourceforge.net/DTD/sodipodi-0.dtd"
   xmlns:inkscape="http://www.inkscape.org/namespaces/inkscape"
   version="1.1"
   id="Layer_1"
   x="0px"
   y="0px"
   width="150px"
   height="247.164px"
   viewBox="0 0 150 247.164"
   enable-background="new 0 0 150 247.164"
   xml:space="preserve"
   sodipodi:docname="pattern_grass1.svg"
   inkscape:version="0.92.1 r15371"><metadata
     id="metadata41"><rdf:RDF><cc:Work
         rdf:about=""><dc:format>image/svg+xml</dc:format><dc:type
           rdf:resource="http://purl.org/dc/dcmitype/StillImage" /><dc:title></dc:title></cc:Work></rdf:RDF></metadata><defs
     id="defs39" /><sodipodi:namedview
     pagecolor="#ffffff"
     bordercolor="#666666"
     borderopacity="1"
     objecttolerance="10"
     gridtolerance="10"
     guidetolerance="10"
     inkscape:pageopacity="0"
     inkscape:pageshadow="2"
     inkscape:window-width="1920"
     inkscape:window-height="1016"
     id="namedview37"
     showgrid="false"
     inkscape:zoom="0.9548316"
     inkscape:cx="139.51107"
     inkscape:cy="67.027525"
     inkscape:window-x="0"
     inkscape:window-y="27"
     inkscape:window-maximized="1"
     inkscape:current-layer="Layer_1" /><g
     id="g4535"><g
       id="g34"><polygon
         id="polygon2"
         points="150,0 115.891,0 120.301,8.803 117.932,9.989 112.928,0 0,0 0,247.164 112.928,247.164    108.519,238.36 110.887,237.174 115.891,247.164 150,247.164  "
         fill="#EBFFEB" /><g
         id="g8"><g
           id="g6"><rect
             id="rect4"
             height="2.649"
             width="9.255"
             transform="matrix(0.7072 0.7071 -0.7071 0.7072 37.4254 -16.9382)"
             y="35.388"
             x="34.534"
             fill="#6CFF70" /></g></g><g
         id="g22"><g
           id="g12"><rect
             id="rect10"
             height="2.65"
             width="21.019"
             transform="matrix(0.448 0.894 -0.894 0.448 132.2419 32.9873)"
             y="122.257"
             x="28.899"
             fill="#6CFF70" /></g><g
           id="g16"><rect
             id="rect14"
             height="14.123"
             width="2.649"
             transform="matrix(0.8112 0.5848 -0.5848 0.8112 73.321 -47.3782)"
             y="82.793"
             x="108.705"
             fill="#6CFF70" /></g><g
           id="g20"><rect
             id="rect18"
             height="2.648"
             width="9.256"
             transform="matrix(0.7071 0.7071 -0.7071 0.7071 146.7831 -33.7779)"
             y="158.97"
             x="109.537"
             fill="#6CFF70" /></g></g><g
         id="g28"><g
           id="g26"><rect
             id="rect24"
             height="14.122"
             width="2.649"
             transform="matrix(0.8112 0.5848 -0.5848 0.8112 131.4291 19.8161)"
             y="206.375"
             x="33.704"
             fill="#6CFF70" /></g></g><polygon
         id="polygon30"
         points="120.301,8.803 115.891,0 112.928,0 117.932,9.989  "
         fill="#6CFF70" /><polygon
         id="polygon32"
         points="108.519,238.36 112.928,247.164 115.891,247.164 110.887,237.174  "
         fill="#6CFF70" /></g></g></svg>