<svg version="1.1"
      xmlns="http://www.w3.org/2000/svg"
      xmlns:xlink="http://www.w3.org/1999/xlink"  id="snapshot-68101" width="400" height="400" viewBox="0 0 400 400"><desc>This image was made on Patterninja.com</desc><defs>
<!-- image 72556 -->
<g id="transformed-72556" data-image="72556" transform="translate(83.5, 65) rotate(291, 138.5, 140)"><g><svg version="1.1" width="277px" height="280px" viewBox="0 0 277 280"><g id="original-72556"><svg xmlns="http://www.w3.org/2000/svg" viewBox="0 0 10.659 10.745" xmlns:xlink="http://www.w3.org/1999/xlink" version="1.1" preserveAspectRatio="xMidYMid meet">
  <path stroke-width=".132" d="M4.176 4.193c-.07.073-.289.957.197 1.499.464.517 1.38.925 2.22.987-.131-.807-.24-1.66-.914-2.249-.689-.603-1.456-.287-1.503-.237z" stroke-linecap="round" stroke-linejoin="round" fill="rgba(0, 0, 0, 0)" stroke="rgba(0, 255, 0, 1)"/>
</svg>
</g></svg></g></g>
<!-- /image 72556 -->

<!-- image 82979 -->
<g id="transformed-82979" data-image="82979" transform="translate(-125, -128) rotate(352, 136, 138)"><g><svg version="1.1" width="272px" height="276px" viewBox="0 0 272 276"><g id="original-82979"><svg xmlns="http://www.w3.org/2000/svg" viewBox="0 0 10.659 10.745" xmlns:xlink="http://www.w3.org/1999/xlink" version="1.1" preserveAspectRatio="xMidYMid meet">
  <path stroke-width=".132" d="M4.176 4.193c-.07.073-.289.957.197 1.499.464.517 1.38.925 2.22.987-.131-.807-.24-1.66-.914-2.249-.689-.603-1.456-.287-1.503-.237z" stroke-linecap="round" stroke-linejoin="round" fill="rgba(0, 0, 0, 0)" stroke="rgba(0, 255, 0, 1)"/>
</svg>
</g></svg></g></g>
<!-- /image 82979 -->
</defs><rect x="0" y="0" width="400" height="400" fill="rgba(255, 255, 255, 0)"></rect><use xlink:href="#transformed-72556" transform="translate(-400, -400)"></use><use xlink:href="#transformed-72556" transform="translate(0, -400)"></use><use xlink:href="#transformed-72556" transform="translate(400, -400)"></use><use xlink:href="#transformed-72556" transform="translate(-400, 0)"></use><use xlink:href="#transformed-72556" transform="translate(0, 0)"></use><use xlink:href="#transformed-72556" transform="translate(400, 0)"></use><use xlink:href="#transformed-72556" transform="translate(-400, 400)"></use><use xlink:href="#transformed-72556" transform="translate(0, 400)"></use><use xlink:href="#transformed-72556" transform="translate(400, 400)"></use><use xlink:href="#transformed-82979" transform="translate(-400, -400)"></use><use xlink:href="#transformed-82979" transform="translate(0, -400)"></use><use xlink:href="#transformed-82979" transform="translate(400, -400)"></use><use xlink:href="#transformed-82979" transform="translate(-400, 0)"></use><use xlink:href="#transformed-82979" transform="translate(0, 0)"></use><use xlink:href="#transformed-82979" transform="translate(400, 0)"></use><use xlink:href="#transformed-82979" transform="translate(-400, 400)"></use><use xlink:href="#transformed-82979" transform="translate(0, 400)"></use><use xlink:href="#transformed-82979" transform="translate(400, 400)"></use></svg>