<?xml version="1.0" encoding="utf-8"?>
<!-- Generator: Adobe Illustrator 16.0.0, SVG Export Plug-In . SVG Version: 6.00 Build 0)  -->
<!DOCTYPE svg PUBLIC "-//W3C//DTD SVG 1.1//EN" "http://www.w3.org/Graphics/SVG/1.1/DTD/svg11.dtd">
<svg version="1.1" id="Layer_1" xmlns="http://www.w3.org/2000/svg" xmlns:xlink="http://www.w3.org/1999/xlink" x="0px" y="0px"
	 width="967.811px" height="967.816px" viewBox="628 2.685 967.811 967.816" enable-background="new 628 2.685 967.811 967.816"
	 xml:space="preserve">
<g id="bkg">
</g>
<g id="text">
</g>
<g id="cards">
</g>
<g id="lijn" display="none">
</g>
<g id="iconen1">
</g>
<g id="iconen2">
</g>
<g id="bkg_1_">
</g>
<g id="text_1_">
</g>
<g id="cards_1_">
</g>
<g id="lijn_1_" display="none">
</g>
<g id="iconen1_1_">
</g>
<g id="iconen2_1_">
</g>
<g id="Layer_7_1_">
	<path fill="#E9F7FF" d="M659.088,2.685c-0.245,1.408-1.07,3.172-3.711,3.163v0.006c-0.006,0-0.013-0.006-0.013-0.006
		s-0.013,0-0.019,0.006V5.848c-2.6-0.031-3.406-1.758-3.642-3.163H628v967.811h23.704c-0.167-0.955-0.073-1.765-0.073-1.765
		c0.104-2.968,3.815-7.961,3.815-7.961h0.032c0,0,3.635,5.057,3.698,8.024c0,0,0.075,0.774-0.082,1.701h936.716V2.685H659.088z"/>
	<path fill="none" d="M655.377,780.096v0.007c-0.006,0-0.013-0.007-0.013-0.007s-0.013,0-0.019,0.007v-0.007
		c-4.373-0.06-3.718-4.927-3.718-4.927c0.101-2.968,3.815-7.962,3.815-7.962h0.028c0,0,3.642,5.057,3.702,8.024
		C659.174,775.235,659.75,780.109,655.377,780.096z"/>
	<path fill="none" d="M655.377,586.535v0.006c-0.006,0-0.013-0.006-0.013-0.006s-0.013,0-0.019,0.006v-0.006
		c-4.373-0.061-3.718-4.928-3.718-4.928c0.101-2.968,3.815-7.961,3.815-7.961h0.028c0,0,3.642,5.057,3.702,8.023
		C659.174,581.674,659.75,586.547,655.377,586.535z"/>
	<path fill="none" d="M655.377,392.972v0.006c-0.006,0-0.013-0.006-0.013-0.006s-0.013,0-0.019,0.006v-0.006
		c-4.373-0.06-3.718-4.928-3.718-4.928c0.101-2.967,3.815-7.961,3.815-7.961h0.028c0,0,3.642,5.057,3.702,8.024
		C659.174,388.111,659.75,392.985,655.377,392.972z"/>
	<path fill="none" d="M655.377,199.41v0.007c-0.006,0-0.013-0.007-0.013-0.007s-0.013,0-0.019,0.007v-0.007
		c-4.373-0.06-3.718-4.927-3.718-4.927c0.101-2.968,3.815-7.961,3.815-7.961h0.028c0,0,3.642,5.057,3.702,8.024
		C659.174,194.55,659.75,199.423,655.377,199.41z"/>
	<path fill="none" d="M710.289,921.787L710.289,921.787c-0.013,0.003-0.02,0-0.02,0s-0.009,0-0.016,0.003v-0.003
		c-4.369-0.063-3.714-4.931-3.714-4.931c0.101-2.968,3.812-7.958,3.812-7.958h0.032c0,0,3.639,5.054,3.698,8.021
		C714.082,916.923,714.655,921.797,710.289,921.787z"/>
	<path fill="none" d="M710.289,728.224L710.289,728.224c-0.013,0.004-0.02,0-0.02,0s-0.009,0-0.016,0.004v-0.004
		c-4.369-0.063-3.714-4.93-3.714-4.93c0.101-2.968,3.812-7.958,3.812-7.958h0.032c0,0,3.639,5.053,3.698,8.021
		C714.082,723.36,714.655,728.234,710.289,728.224z"/>
	<path fill="none" d="M710.289,534.663L710.289,534.663c-0.013,0.003-0.02,0-0.02,0s-0.009,0-0.016,0.003v-0.003
		c-4.369-0.063-3.714-4.931-3.714-4.931c0.101-2.968,3.812-7.958,3.812-7.958h0.032c0,0,3.639,5.054,3.698,8.021
		C714.082,529.799,714.655,534.673,710.289,534.663z"/>
	<path fill="none" d="M710.289,341.1L710.289,341.1c-0.013,0.004-0.02,0-0.02,0s-0.009,0-0.016,0.004V341.1
		c-4.369-0.063-3.714-4.93-3.714-4.93c0.101-2.968,3.812-7.958,3.812-7.958h0.032c0,0,3.639,5.053,3.698,8.021
		C714.082,336.236,714.655,341.11,710.289,341.1z"/>
	<path fill="none" d="M710.289,147.539L710.289,147.539c-0.013,0.003-0.02,0-0.02,0s-0.009,0-0.016,0.003v-0.003
		c-4.369-0.063-3.714-4.931-3.714-4.931c0.101-2.968,3.812-7.958,3.812-7.958h0.032c0,0,3.639,5.054,3.698,8.021
		C714.082,142.675,714.655,147.548,710.289,147.539z"/>
	<path fill="none" d="M772.378,811.396v0.006c-0.013,0-0.02-0.006-0.02-0.006s-0.009,0-0.016,0.006v-0.006
		c-4.369-0.061-3.718-4.931-3.718-4.931c0.104-2.965,3.815-7.958,3.815-7.958h0.032c0,0,3.639,5.053,3.698,8.018
		C776.171,806.525,776.744,811.409,772.378,811.396z"/>
	<path fill="none" d="M772.378,617.834v0.007c-0.013,0-0.02-0.007-0.02-0.007s-0.009,0-0.016,0.007v-0.007
		c-4.369-0.06-3.718-4.931-3.718-4.931c0.104-2.964,3.815-7.958,3.815-7.958h0.032c0,0,3.639,5.054,3.698,8.019
		C776.171,612.964,776.744,617.846,772.378,617.834z"/>
	<path fill="none" d="M772.378,424.272v0.006c-0.013,0-0.02-0.006-0.02-0.006s-0.009,0-0.016,0.006v-0.006
		c-4.369-0.061-3.718-4.931-3.718-4.931c0.104-2.965,3.815-7.958,3.815-7.958h0.032c0,0,3.639,5.054,3.698,8.018
		C776.171,419.401,776.744,424.285,772.378,424.272z"/>
	<path fill="none" d="M772.378,230.71v0.007c-0.013,0-0.02-0.007-0.02-0.007s-0.009,0-0.016,0.007v-0.007
		c-4.369-0.06-3.718-4.931-3.718-4.931c0.104-2.964,3.815-7.958,3.815-7.958h0.032c0,0,3.639,5.054,3.698,8.019
		C776.171,225.84,776.744,230.722,772.378,230.71z"/>
	<path fill="none" d="M772.378,37.148v0.006c-0.013,0-0.02-0.006-0.02-0.006s-0.009,0-0.016,0.006v-0.006
		c-4.369-0.06-3.718-4.93-3.718-4.93c0.104-2.965,3.815-7.958,3.815-7.958h0.032c0,0,3.639,5.053,3.698,8.018
		C776.171,32.277,776.744,37.16,772.378,37.148z"/>
	<path fill="none" d="M848.939,896.234v0.006c-0.007,0-0.013-0.006-0.013-0.006s-0.013,0-0.019,0.006v-0.006
		c-4.373-0.061-3.718-4.928-3.718-4.928c0.101-2.968,3.815-7.961,3.815-7.961h0.027c0,0,3.643,5.057,3.702,8.023
		C852.735,891.373,853.313,896.246,848.939,896.234z"/>
	<path fill="none" d="M848.939,702.672v0.006c-0.007,0-0.013-0.006-0.013-0.006s-0.013,0-0.019,0.006v-0.006
		c-4.373-0.06-3.718-4.928-3.718-4.928c0.101-2.967,3.815-7.961,3.815-7.961h0.027c0,0,3.643,5.057,3.702,8.024
		C852.735,697.81,853.313,702.684,848.939,702.672z"/>
	<path fill="none" d="M848.939,509.109v0.007c-0.007,0-0.013-0.007-0.013-0.007s-0.013,0-0.019,0.007v-0.007
		c-4.373-0.06-3.718-4.927-3.718-4.927c0.101-2.968,3.815-7.961,3.815-7.961h0.027c0,0,3.643,5.057,3.702,8.024
		C852.735,504.249,853.313,509.122,848.939,509.109z"/>
	<path fill="none" d="M848.939,315.548v0.007c-0.007,0-0.013-0.007-0.013-0.007s-0.013,0-0.019,0.007v-0.007
		c-4.373-0.06-3.718-4.927-3.718-4.927c0.101-2.969,3.815-7.962,3.815-7.962h0.027c0,0,3.643,5.057,3.702,8.024
		C852.735,310.686,853.313,315.56,848.939,315.548z"/>
	<path fill="none" d="M848.939,121.986v0.006c-0.007,0-0.013-0.006-0.013-0.006s-0.013,0-0.019,0.006v-0.006
		c-4.373-0.06-3.718-4.927-3.718-4.927c0.101-2.968,3.815-7.961,3.815-7.961h0.027c0,0,3.643,5.056,3.702,8.024
		C852.735,117.125,853.313,121.998,848.939,121.986z"/>
	<path fill="none" d="M903.852,844.362L903.852,844.362c-0.014,0.003-0.02,0-0.02,0s-0.01,0-0.016,0.003v-0.003
		c-4.369-0.063-3.715-4.931-3.715-4.931c0.102-2.968,3.813-7.958,3.813-7.958h0.031c0,0,3.639,5.054,3.699,8.021
		C907.645,839.498,908.218,844.372,903.852,844.362z"/>
	<path fill="none" d="M903.852,650.8L903.852,650.8c-0.014,0.004-0.02,0-0.02,0s-0.01,0-0.016,0.004V650.8
		c-4.369-0.063-3.715-4.93-3.715-4.93c0.102-2.968,3.813-7.958,3.813-7.958h0.031c0,0,3.639,5.053,3.699,8.021
		C907.645,645.935,908.218,650.809,903.852,650.8z"/>
	<path fill="none" d="M903.852,457.238L903.852,457.238c-0.014,0.003-0.02,0-0.02,0s-0.01,0-0.016,0.003v-0.003
		c-4.369-0.063-3.715-4.931-3.715-4.931c0.102-2.968,3.813-7.958,3.813-7.958h0.031c0,0,3.639,5.054,3.699,8.021
		C907.645,452.374,908.218,457.248,903.852,457.238z"/>
	<path fill="none" d="M903.852,263.676L903.852,263.676c-0.014,0.004-0.02,0-0.02,0s-0.01,0-0.016,0.004v-0.004
		c-4.369-0.063-3.715-4.93-3.715-4.93c0.102-2.968,3.813-7.958,3.813-7.958h0.031c0,0,3.639,5.053,3.699,8.021
		C907.645,258.811,908.218,263.685,903.852,263.676z"/>
	<path fill="none" d="M903.852,70.114L903.852,70.114c-0.014,0.003-0.02,0-0.02,0s-0.01,0-0.016,0.003v-0.003
		c-4.369-0.063-3.715-4.931-3.715-4.931c0.102-2.968,3.813-7.958,3.813-7.958h0.031c0,0,3.639,5.054,3.699,8.021
		C907.645,65.25,908.218,70.123,903.852,70.114z"/>
	<path fill="none" d="M965.939,927.533v0.007c-0.013,0-0.019-0.007-0.019-0.007s-0.01,0-0.016,0.007v-0.007
		c-4.37-0.06-3.718-4.931-3.718-4.931c0.104-2.964,3.815-7.958,3.815-7.958h0.031c0,0,3.639,5.054,3.698,8.019
		C969.732,922.663,970.307,927.546,965.939,927.533z"/>
	<path fill="none" d="M965.939,733.971v0.006c-0.013,0-0.019-0.006-0.019-0.006s-0.01,0-0.016,0.006v-0.006
		c-4.37-0.061-3.718-4.931-3.718-4.931c0.104-2.965,3.815-7.958,3.815-7.958h0.031c0,0,3.639,5.054,3.698,8.018
		C969.732,729.1,970.307,733.984,965.939,733.971z"/>
	<path fill="none" d="M965.939,540.409v0.007c-0.013,0-0.019-0.007-0.019-0.007s-0.01,0-0.016,0.007v-0.007
		c-4.37-0.06-3.718-4.931-3.718-4.931c0.104-2.964,3.815-7.958,3.815-7.958h0.031c0,0,3.639,5.054,3.698,8.019
		C969.732,535.539,970.307,540.422,965.939,540.409z"/>
	<path fill="none" d="M965.939,346.847v0.006c-0.013,0-0.019-0.006-0.019-0.006s-0.01,0-0.016,0.006v-0.006
		c-4.37-0.061-3.718-4.931-3.718-4.931c0.104-2.965,3.815-7.958,3.815-7.958h0.031c0,0,3.639,5.053,3.698,8.018
		C969.732,341.976,970.307,346.859,965.939,346.847z"/>
	<path fill="none" d="M965.939,153.285v0.007c-0.013,0-0.019-0.007-0.019-0.007s-0.01,0-0.016,0.007v-0.007
		c-4.37-0.06-3.718-4.93-3.718-4.93c0.104-2.964,3.815-7.958,3.815-7.958h0.031c0,0,3.639,5.053,3.698,8.018
		C969.732,148.414,970.307,153.298,965.939,153.285z"/>
	<path fill="none" d="M1042.501,818.808v0.007c-0.006,0-0.013-0.007-0.013-0.007s-0.012,0-0.019,0.007v-0.007
		c-4.373-0.06-3.718-4.927-3.718-4.927c0.102-2.968,3.815-7.961,3.815-7.961h0.028c0,0,3.642,5.057,3.701,8.024
		C1046.297,813.948,1046.874,818.821,1042.501,818.808z"/>
	<path fill="none" d="M1042.501,625.247v0.006c-0.006,0-0.013-0.006-0.013-0.006s-0.012,0-0.019,0.006v-0.006
		c-4.373-0.06-3.718-4.927-3.718-4.927c0.102-2.968,3.815-7.962,3.815-7.962h0.028c0,0,3.642,5.057,3.701,8.024
		C1046.297,620.385,1046.874,625.26,1042.501,625.247z"/>
	<path fill="none" d="M1042.501,431.685v0.006c-0.006,0-0.013-0.006-0.013-0.006s-0.012,0-0.019,0.006v-0.006
		c-4.373-0.061-3.718-4.928-3.718-4.928c0.102-2.968,3.815-7.961,3.815-7.961h0.028c0,0,3.642,5.057,3.701,8.023
		C1046.297,426.824,1046.874,431.697,1042.501,431.685z"/>
	<path fill="none" d="M1042.501,238.123v0.006c-0.006,0-0.013-0.006-0.013-0.006s-0.012,0-0.019,0.006v-0.006
		c-4.373-0.06-3.718-4.928-3.718-4.928c0.102-2.967,3.815-7.961,3.815-7.961h0.028c0,0,3.642,5.057,3.701,8.024
		C1046.297,233.261,1046.874,238.135,1042.501,238.123z"/>
	<path fill="none" d="M1042.501,44.561v0.006c-0.006,0-0.013-0.006-0.013-0.006s-0.012,0-0.019,0.006v-0.006
		c-4.373-0.06-3.718-4.927-3.718-4.927c0.102-2.968,3.815-7.961,3.815-7.961h0.028c0,0,3.642,5.056,3.701,8.024
		C1046.297,39.7,1046.874,44.573,1042.501,44.561z"/>
	<path fill="none" d="M1097.413,960.499L1097.413,960.499c-0.013,0.004-0.019,0-0.019,0s-0.01,0-0.016,0.004v-0.004
		c-4.37-0.063-3.715-4.93-3.715-4.93c0.101-2.968,3.813-7.958,3.813-7.958h0.031c0,0,3.639,5.053,3.698,8.021
		C1101.206,955.635,1101.779,960.509,1097.413,960.499z"/>
	<path fill="none" d="M1097.413,766.937L1097.413,766.937c-0.013,0.003-0.019,0-0.019,0s-0.01,0-0.016,0.003v-0.003
		c-4.37-0.063-3.715-4.931-3.715-4.931c0.101-2.968,3.813-7.958,3.813-7.958h0.031c0,0,3.639,5.054,3.698,8.021
		C1101.206,762.073,1101.779,766.947,1097.413,766.937z"/>
	<path fill="none" d="M1097.413,573.375L1097.413,573.375c-0.013,0.004-0.019,0-0.019,0s-0.01,0-0.016,0.004v-0.004
		c-4.37-0.063-3.715-4.93-3.715-4.93c0.101-2.968,3.813-7.958,3.813-7.958h0.031c0,0,3.639,5.053,3.698,8.021
		C1101.206,568.51,1101.779,573.385,1097.413,573.375z"/>
	<path fill="none" d="M1097.413,379.813L1097.413,379.813c-0.013,0.003-0.019,0-0.019,0s-0.01,0-0.016,0.003v-0.003
		c-4.37-0.063-3.715-4.931-3.715-4.931c0.101-2.968,3.813-7.958,3.813-7.958h0.031c0,0,3.639,5.054,3.698,8.021
		C1101.206,374.949,1101.779,379.822,1097.413,379.813z"/>
	<path fill="none" d="M1097.413,186.251L1097.413,186.251c-0.013,0.004-0.019,0-0.019,0s-0.01,0-0.016,0.004v-0.004
		c-4.37-0.063-3.715-4.93-3.715-4.93c0.101-2.968,3.813-7.958,3.813-7.958h0.031c0,0,3.639,5.053,3.698,8.021
		C1101.206,181.386,1101.779,186.26,1097.413,186.251z"/>
	<path fill="none" d="M1159.502,850.108v0.007c-0.013,0-0.02-0.007-0.02-0.007s-0.01,0-0.016,0.007v-0.007
		c-4.369-0.06-3.717-4.931-3.717-4.931c0.104-2.964,3.814-7.958,3.814-7.958h0.031c0,0,3.639,5.054,3.699,8.019
		C1163.295,845.238,1163.868,850.121,1159.502,850.108z"/>
	<path fill="none" d="M1159.502,656.547v0.006c-0.013,0-0.02-0.006-0.02-0.006s-0.01,0-0.016,0.006v-0.006
		c-4.369-0.061-3.717-4.931-3.717-4.931c0.104-2.965,3.814-7.958,3.814-7.958h0.031c0,0,3.639,5.053,3.699,8.018
		C1163.295,651.676,1163.868,656.559,1159.502,656.547z"/>
	<path fill="none" d="M1159.502,462.984v0.007c-0.013,0-0.02-0.007-0.02-0.007s-0.01,0-0.016,0.007v-0.007
		c-4.369-0.06-3.717-4.931-3.717-4.931c0.104-2.964,3.814-7.958,3.814-7.958h0.031c0,0,3.639,5.054,3.699,8.019
		C1163.295,458.114,1163.868,462.997,1159.502,462.984z"/>
	<path fill="none" d="M1159.502,269.423v0.006c-0.013,0-0.02-0.006-0.02-0.006s-0.01,0-0.016,0.006v-0.006
		c-4.369-0.061-3.717-4.931-3.717-4.931c0.104-2.965,3.814-7.958,3.814-7.958h0.031c0,0,3.639,5.054,3.699,8.018
		C1163.295,264.552,1163.868,269.435,1159.502,269.423z"/>
	<path fill="none" d="M1159.502,75.86v0.006c-0.013,0-0.02-0.006-0.02-0.006s-0.01,0-0.016,0.006V75.86
		c-4.369-0.06-3.717-4.93-3.717-4.93c0.104-2.965,3.814-7.958,3.814-7.958h0.031c0,0,3.639,5.053,3.699,8.018
		C1163.295,70.99,1163.868,75.873,1159.502,75.86z"/>
	<path fill="none" d="M1236.063,934.946v0.006c-0.007,0-0.013-0.006-0.013-0.006s-0.013,0-0.02,0.006v-0.006
		c-4.372-0.06-3.717-4.927-3.717-4.927c0.101-2.968,3.814-7.962,3.814-7.962h0.029c0,0,3.642,5.057,3.701,8.024
		C1239.859,930.085,1240.436,934.959,1236.063,934.946z"/>
	<path fill="none" d="M1236.063,741.385v0.006c-0.007,0-0.013-0.006-0.013-0.006s-0.013,0-0.02,0.006v-0.006
		c-4.372-0.061-3.717-4.928-3.717-4.928c0.101-2.968,3.814-7.961,3.814-7.961h0.029c0,0,3.642,5.057,3.701,8.023
		C1239.859,736.523,1240.436,741.396,1236.063,741.385z"/>
	<path fill="none" d="M1236.063,547.822v0.006c-0.007,0-0.013-0.006-0.013-0.006s-0.013,0-0.02,0.006v-0.006
		c-4.372-0.06-3.717-4.928-3.717-4.928c0.101-2.967,3.814-7.961,3.814-7.961h0.029c0,0,3.642,5.057,3.701,8.024
		C1239.859,542.961,1240.436,547.835,1236.063,547.822z"/>
	<path fill="none" d="M1236.063,354.26v0.007c-0.007,0-0.013-0.007-0.013-0.007s-0.013,0-0.02,0.007v-0.007
		c-4.372-0.06-3.717-4.927-3.717-4.927c0.101-2.968,3.814-7.961,3.814-7.961h0.029c0,0,3.642,5.057,3.701,8.024
		C1239.859,349.399,1240.436,354.272,1236.063,354.26z"/>
	<path fill="none" d="M1236.063,160.698v0.007c-0.007,0-0.013-0.007-0.013-0.007s-0.013,0-0.02,0.007v-0.007
		c-4.372-0.06-3.717-4.927-3.717-4.927c0.101-2.969,3.814-7.962,3.814-7.962h0.029c0,0,3.642,5.057,3.701,8.024
		C1239.859,155.837,1240.436,160.711,1236.063,160.698z"/>
	<path fill="none" d="M1290.975,883.074L1290.975,883.074c-0.012,0.004-0.019,0-0.019,0s-0.009,0-0.016,0.004v-0.004
		c-4.37-0.063-3.714-4.93-3.714-4.93c0.101-2.968,3.812-7.958,3.812-7.958h0.031c0,0,3.639,5.053,3.699,8.021
		C1294.769,878.21,1295.342,883.084,1290.975,883.074z"/>
	<path fill="none" d="M1290.975,689.512L1290.975,689.512c-0.012,0.003-0.019,0-0.019,0s-0.009,0-0.016,0.003v-0.003
		c-4.37-0.063-3.714-4.931-3.714-4.931c0.101-2.968,3.812-7.958,3.812-7.958h0.031c0,0,3.639,5.054,3.699,8.021
		C1294.769,684.648,1295.342,689.522,1290.975,689.512z"/>
	<path fill="none" d="M1290.975,495.95L1290.975,495.95c-0.012,0.004-0.019,0-0.019,0s-0.009,0-0.016,0.004v-0.004
		c-4.37-0.063-3.714-4.93-3.714-4.93c0.101-2.968,3.812-7.958,3.812-7.958h0.031c0,0,3.639,5.053,3.699,8.021
		C1294.769,491.086,1295.342,495.96,1290.975,495.95z"/>
	<path fill="none" d="M1290.975,302.388L1290.975,302.388c-0.012,0.003-0.019,0-0.019,0s-0.009,0-0.016,0.003v-0.003
		c-4.37-0.063-3.714-4.931-3.714-4.931c0.101-2.968,3.812-7.958,3.812-7.958h0.031c0,0,3.639,5.054,3.699,8.021
		C1294.769,297.524,1295.342,302.398,1290.975,302.388z"/>
	<path fill="none" d="M1290.975,108.826L1290.975,108.826c-0.012,0.003-0.019,0-0.019,0s-0.009,0-0.016,0.003v-0.003
		c-4.37-0.063-3.714-4.931-3.714-4.931c0.101-2.968,3.812-7.958,3.812-7.958h0.031c0,0,3.639,5.053,3.699,8.021
		C1294.769,103.962,1295.342,108.836,1290.975,108.826z"/>
	<path fill="none" d="M1353.063,966.246v0.006c-0.013,0-0.019-0.006-0.019-0.006s-0.01,0-0.016,0.006v-0.006
		c-4.37-0.061-3.718-4.931-3.718-4.931c0.104-2.965,3.815-7.958,3.815-7.958h0.031c0,0,3.639,5.054,3.698,8.018
		C1356.856,961.375,1357.43,966.259,1353.063,966.246z"/>
	<path fill="none" d="M1353.063,772.683v0.007c-0.013,0-0.019-0.007-0.019-0.007s-0.01,0-0.016,0.007v-0.007
		c-4.37-0.06-3.718-4.931-3.718-4.931c0.104-2.964,3.815-7.958,3.815-7.958h0.031c0,0,3.639,5.054,3.698,8.019
		C1356.856,767.813,1357.43,772.696,1353.063,772.683z"/>
	<path fill="none" d="M1353.063,579.122v0.006c-0.013,0-0.019-0.006-0.019-0.006s-0.01,0-0.016,0.006v-0.006
		c-4.37-0.061-3.718-4.931-3.718-4.931c0.104-2.965,3.815-7.958,3.815-7.958h0.031c0,0,3.639,5.054,3.698,8.018
		C1356.856,574.251,1357.43,579.135,1353.063,579.122z"/>
	<path fill="none" d="M1353.063,385.559v0.007c-0.013,0-0.019-0.007-0.019-0.007s-0.01,0-0.016,0.007v-0.007
		c-4.37-0.06-3.718-4.931-3.718-4.931c0.104-2.964,3.815-7.958,3.815-7.958h0.031c0,0,3.639,5.054,3.698,8.019
		C1356.856,380.689,1357.43,385.572,1353.063,385.559z"/>
	<path fill="none" d="M1353.063,191.998v0.006c-0.013,0-0.019-0.006-0.019-0.006s-0.01,0-0.016,0.006v-0.006
		c-4.37-0.061-3.718-4.931-3.718-4.931c0.104-2.965,3.815-7.958,3.815-7.958h0.031c0,0,3.639,5.053,3.698,8.018
		C1356.856,187.127,1357.43,192.01,1353.063,191.998z"/>
	<path fill="none" d="M1429.625,857.521v0.006c-0.006,0-0.013-0.006-0.013-0.006s-0.013,0-0.019,0.006v-0.006
		c-4.373-0.06-3.718-4.928-3.718-4.928c0.101-2.967,3.815-7.961,3.815-7.961h0.028c0,0,3.642,5.057,3.702,8.024
		C1433.422,852.66,1433.998,857.534,1429.625,857.521z"/>
	<path fill="none" d="M1429.625,663.959v0.007c-0.006,0-0.013-0.007-0.013-0.007s-0.013,0-0.019,0.007v-0.007
		c-4.373-0.06-3.718-4.927-3.718-4.927c0.101-2.968,3.815-7.961,3.815-7.961h0.028c0,0,3.642,5.057,3.702,8.024
		C1433.422,659.098,1433.998,663.971,1429.625,663.959z"/>
	<path fill="none" d="M1429.625,470.397v0.006c-0.006,0-0.013-0.006-0.013-0.006s-0.013,0-0.019,0.006v-0.006
		c-4.373-0.06-3.718-4.927-3.718-4.927c0.101-2.968,3.815-7.962,3.815-7.962h0.028c0,0,3.642,5.057,3.702,8.024
		C1433.422,465.536,1433.998,470.41,1429.625,470.397z"/>
	<path fill="none" d="M1429.625,276.836v0.006c-0.006,0-0.013-0.006-0.013-0.006s-0.013,0-0.019,0.006v-0.006
		c-4.373-0.061-3.718-4.928-3.718-4.928c0.101-2.968,3.815-7.961,3.815-7.961h0.028c0,0,3.642,5.057,3.702,8.023
		C1433.422,271.974,1433.998,276.847,1429.625,276.836z"/>
	<path fill="none" d="M1429.625,83.273v0.006c-0.006,0-0.013-0.006-0.013-0.006s-0.013,0-0.019,0.006v-0.006
		c-4.373-0.06-3.718-4.927-3.718-4.927c0.101-2.968,3.815-7.961,3.815-7.961h0.028c0,0,3.642,5.057,3.702,8.024
		C1433.422,78.412,1433.998,83.286,1429.625,83.273z"/>
	<path fill="none" d="M1484.537,805.649L1484.537,805.649c-0.013,0.004-0.019,0-0.019,0s-0.01,0-0.017,0.004v-0.004
		c-4.369-0.063-3.714-4.93-3.714-4.93c0.101-2.968,3.812-7.958,3.812-7.958h0.032c0,0,3.639,5.053,3.698,8.021
		C1488.33,800.785,1488.903,805.659,1484.537,805.649z"/>
	<path fill="none" d="M1484.537,612.088L1484.537,612.088c-0.013,0.003-0.019,0-0.019,0s-0.01,0-0.017,0.003v-0.003
		c-4.369-0.063-3.714-4.931-3.714-4.931c0.101-2.968,3.812-7.958,3.812-7.958h0.032c0,0,3.639,5.054,3.698,8.021
		C1488.33,607.223,1488.903,612.097,1484.537,612.088z"/>
	<path fill="none" d="M1484.537,418.525L1484.537,418.525c-0.013,0.004-0.019,0-0.019,0s-0.01,0-0.017,0.004v-0.004
		c-4.369-0.063-3.714-4.93-3.714-4.93c0.101-2.968,3.812-7.958,3.812-7.958h0.032c0,0,3.639,5.053,3.698,8.021
		C1488.33,413.661,1488.903,418.535,1484.537,418.525z"/>
	<path fill="none" d="M1484.537,224.964L1484.537,224.964c-0.013,0.003-0.019,0-0.019,0s-0.01,0-0.017,0.003v-0.003
		c-4.369-0.063-3.714-4.931-3.714-4.931c0.101-2.968,3.812-7.958,3.812-7.958h0.032c0,0,3.639,5.054,3.698,8.021
		C1488.33,220.099,1488.903,224.972,1484.537,224.964z"/>
	<path fill="none" d="M1484.537,31.402L1484.537,31.402c-0.013,0.003-0.019,0-0.019,0s-0.01,0-0.017,0.003v-0.003
		c-4.369-0.063-3.714-4.931-3.714-4.931c0.101-2.968,3.812-7.958,3.812-7.958h0.032c0,0,3.639,5.053,3.698,8.021
		C1488.33,26.537,1488.903,31.411,1484.537,31.402z"/>
	<path fill="none" d="M1546.626,888.821v0.006c-0.013,0-0.02-0.006-0.02-0.006s-0.009,0-0.016,0.006v-0.006
		c-4.369-0.061-3.718-4.931-3.718-4.931c0.104-2.965,3.815-7.958,3.815-7.958h0.032c0,0,3.639,5.054,3.698,8.018
		C1550.419,883.95,1550.992,888.834,1546.626,888.821z"/>
	<path fill="none" d="M1546.626,695.259v0.007c-0.013,0-0.02-0.007-0.02-0.007s-0.009,0-0.016,0.007v-0.007
		c-4.369-0.06-3.718-4.931-3.718-4.931c0.104-2.964,3.815-7.958,3.815-7.958h0.032c0,0,3.639,5.054,3.698,8.019
		C1550.419,690.388,1550.992,695.271,1546.626,695.259z"/>
	<path fill="none" d="M1546.626,501.697v0.006c-0.013,0-0.02-0.006-0.02-0.006s-0.009,0-0.016,0.006v-0.006
		c-4.369-0.061-3.718-4.931-3.718-4.931c0.104-2.965,3.815-7.958,3.815-7.958h0.032c0,0,3.639,5.053,3.698,8.018
		C1550.419,496.826,1550.992,501.71,1546.626,501.697z"/>
	<path fill="none" d="M1546.626,308.135v0.007c-0.013,0-0.02-0.007-0.02-0.007s-0.009,0-0.016,0.007v-0.007
		c-4.369-0.06-3.718-4.931-3.718-4.931c0.104-2.964,3.815-7.958,3.815-7.958h0.032c0,0,3.639,5.054,3.698,8.019
		C1550.419,303.264,1550.992,308.147,1546.626,308.135z"/>
	<path fill="none" d="M1546.626,114.573v0.006c-0.013,0-0.02-0.006-0.02-0.006s-0.009,0-0.016,0.006v-0.006
		c-4.369-0.06-3.718-4.93-3.718-4.93c0.104-2.965,3.815-7.958,3.815-7.958h0.032c0,0,3.639,5.053,3.698,8.018
		C1550.419,109.702,1550.992,114.585,1546.626,114.573z"/>
	<path fill="#00A4FF" d="M1484.629,18.513h-0.029c0,0-3.711,4.99-3.818,7.958c0,0-0.654,4.871,3.718,4.931v0.003
		c0.007-0.003,0.017-0.003,0.017-0.003s0.006,0.003,0.019,0.003v-0.003c4.369,0.009,3.796-4.868,3.796-4.868
		C1488.268,23.57,1484.629,18.513,1484.629,18.513z"/>
	<path fill="#00A4FF" d="M903.942,57.225h-0.028c0,0-3.711,4.99-3.818,7.958c0,0-0.655,4.871,3.718,4.931v0.003
		c0.006-0.003,0.016-0.003,0.016-0.003s0.006,0.003,0.019,0.003v-0.003c4.37,0.009,3.797-4.868,3.797-4.868
		C907.581,62.282,903.942,57.225,903.942,57.225z"/>
	<path fill="#00A4FF" d="M1484.629,212.075h-0.029c0,0-3.711,4.99-3.818,7.958c0,0-0.654,4.871,3.718,4.931v0.003
		c0.007-0.003,0.017-0.003,0.017-0.003s0.006,0.003,0.019,0.003v-0.003c4.369,0.009,3.796-4.867,3.796-4.867
		C1488.268,217.132,1484.629,212.075,1484.629,212.075z"/>
	<path fill="#00A4FF" d="M1546.717,101.684h-0.028c0,0-3.711,4.993-3.818,7.958c0,0-0.655,4.874,3.718,4.93v0.006
		c0.006-0.006,0.016-0.006,0.016-0.006s0.006,0.006,0.02,0.006v-0.006c4.369,0.013,3.796-4.871,3.796-4.871
		C1550.355,106.738,1546.717,101.684,1546.717,101.684z"/>
	<path fill="#00A4FF" d="M1429.72,70.385h-0.028c0,0-3.708,4.994-3.815,7.961c0,0-0.655,4.871,3.718,4.927v0.006
		c0.006-0.006,0.019-0.006,0.019-0.006s0.007,0.006,0.013,0.006v-0.006c4.37,0.013,3.797-4.864,3.797-4.864
		C1433.361,75.444,1429.72,70.385,1429.72,70.385z"/>
	<path fill="#00A4FF" d="M1291.066,95.938h-0.028c0,0-3.711,4.99-3.818,7.958c0,0-0.655,4.871,3.718,4.931v0.003
		c0.006-0.003,0.016-0.003,0.016-0.003s0.006,0.003,0.019,0.003v-0.003c4.37,0.009,3.797-4.868,3.797-4.868
		C1294.705,100.994,1291.066,95.938,1291.066,95.938z"/>
	<path fill="#00A4FF" d="M1097.504,173.363h-0.027c0,0-3.712,4.99-3.818,7.958c0,0-0.656,4.87,3.717,4.93v0.004
		c0.007-0.004,0.016-0.004,0.016-0.004s0.007,0.004,0.02,0.004v-0.004c4.369,0.01,3.796-4.867,3.796-4.867
		C1101.143,178.419,1097.504,173.363,1097.504,173.363z"/>
	<path fill="#00A4FF" d="M1159.593,62.972h-0.028c0,0-3.711,4.993-3.818,7.958c0,0-0.655,4.874,3.718,4.93v0.006
		c0.007-0.006,0.016-0.006,0.016-0.006s0.007,0.006,0.019,0.006V75.86c4.37,0.013,3.797-4.871,3.797-4.871
		C1163.231,68.025,1159.593,62.972,1159.593,62.972z"/>
	<path fill="#00A4FF" d="M1042.596,31.673h-0.028c0,0-3.708,4.993-3.815,7.961c0,0-0.655,4.871,3.718,4.927v0.006
		c0.007-0.006,0.019-0.006,0.019-0.006s0.007,0.006,0.013,0.006v-0.006c4.37,0.013,3.796-4.864,3.796-4.864
		C1046.237,36.732,1042.596,31.673,1042.596,31.673z"/>
	<path fill="#00A4FF" d="M903.942,250.788h-0.028c0,0-3.711,4.99-3.818,7.958c0,0-0.655,4.87,3.718,4.93v0.004
		c0.006-0.004,0.016-0.004,0.016-0.004s0.006,0.004,0.019,0.004v-0.004c4.37,0.01,3.797-4.867,3.797-4.867
		C907.581,255.844,903.942,250.788,903.942,250.788z"/>
	<path fill="#00A4FF" d="M966.031,140.397h-0.028c0,0-3.712,4.994-3.818,7.958c0,0-0.655,4.874,3.718,4.93v0.007
		c0.006-0.007,0.016-0.007,0.016-0.007s0.006,0.007,0.019,0.007v-0.007c4.37,0.013,3.796-4.871,3.796-4.871
		C969.67,145.45,966.031,140.397,966.031,140.397z"/>
	<path fill="#00A4FF" d="M849.033,109.097h-0.027c0,0-3.709,4.993-3.815,7.961c0,0-0.655,4.871,3.718,4.927v0.006
		c0.006-0.006,0.019-0.006,0.019-0.006s0.006,0.006,0.013,0.006v-0.006c4.369,0.013,3.796-4.864,3.796-4.864
		C852.676,114.157,849.033,109.097,849.033,109.097z"/>
	<path fill="#00A4FF" d="M710.381,134.65h-0.029c0,0-3.711,4.99-3.818,7.958c0,0-0.654,4.871,3.718,4.931v0.003
		c0.007-0.003,0.017-0.003,0.017-0.003s0.006,0.003,0.019,0.003v-0.003c4.369,0.009,3.796-4.868,3.796-4.868
		C714.02,139.707,710.381,134.65,710.381,134.65z"/>
	<path fill="#00A4FF" d="M772.469,24.26h-0.028c0,0-3.711,4.993-3.818,7.958c0,0-0.655,4.874,3.718,4.93v0.006
		c0.006-0.006,0.016-0.006,0.016-0.006s0.006,0.006,0.02,0.006v-0.006c4.369,0.013,3.796-4.871,3.796-4.871
		C776.107,29.313,772.469,24.26,772.469,24.26z"/>
	<path fill="#00A4FF" d="M655.346,5.848v0.006c0.006-0.006,0.019-0.006,0.019-0.006s0.007,0.006,0.013,0.006V5.848
		c2.641,0.009,3.466-1.755,3.711-3.163h-7.384C651.939,4.091,652.746,5.817,655.346,5.848z"/>
	<path fill="#00A4FF" d="M1484.629,405.637h-0.029c0,0-3.711,4.99-3.818,7.958c0,0-0.654,4.87,3.718,4.93v0.004
		c0.007-0.004,0.017-0.004,0.017-0.004s0.006,0.004,0.019,0.004v-0.004c4.369,0.01,3.796-4.867,3.796-4.867
		C1488.268,410.693,1484.629,405.637,1484.629,405.637z"/>
	<path fill="#00A4FF" d="M1546.717,295.246h-0.028c0,0-3.711,4.994-3.818,7.958c0,0-0.655,4.874,3.718,4.931v0.007
		c0.006-0.007,0.016-0.007,0.016-0.007s0.006,0.007,0.02,0.007v-0.007c4.369,0.013,3.796-4.87,3.796-4.87
		C1550.355,300.3,1546.717,295.246,1546.717,295.246z"/>
	<path fill="#00A4FF" d="M1429.72,263.947h-0.028c0,0-3.708,4.993-3.815,7.961c0,0-0.655,4.87,3.718,4.928v0.006
		c0.006-0.006,0.019-0.006,0.019-0.006s0.007,0.006,0.013,0.006v-0.006c4.37,0.012,3.797-4.865,3.797-4.865
		C1433.361,269.007,1429.72,263.947,1429.72,263.947z"/>
	<path fill="#00A4FF" d="M1291.066,289.5h-0.028c0,0-3.711,4.99-3.818,7.958c0,0-0.655,4.87,3.718,4.931v0.003
		c0.006-0.003,0.016-0.003,0.016-0.003s0.006,0.003,0.019,0.003v-0.003c4.37,0.01,3.797-4.867,3.797-4.867
		C1294.705,294.556,1291.066,289.5,1291.066,289.5z"/>
	<path fill="#00A4FF" d="M1353.155,179.109h-0.028c0,0-3.711,4.993-3.818,7.958c0,0-0.655,4.874,3.717,4.931v0.006
		c0.007-0.006,0.016-0.006,0.016-0.006s0.007,0.006,0.02,0.006v-0.006c4.369,0.012,3.796-4.871,3.796-4.871
		C1356.794,184.162,1353.155,179.109,1353.155,179.109z"/>
	<path fill="#00A4FF" d="M1236.158,147.809h-0.029c0,0-3.707,4.993-3.814,7.962c0,0-0.655,4.87,3.717,4.927v0.007
		c0.007-0.007,0.02-0.007,0.02-0.007s0.006,0.007,0.013,0.007v-0.007c4.369,0.013,3.796-4.864,3.796-4.864
		C1239.8,152.869,1236.158,147.809,1236.158,147.809z"/>
	<path fill="#00A4FF" d="M1097.504,366.925h-0.027c0,0-3.712,4.99-3.818,7.958c0,0-0.656,4.871,3.717,4.931v0.003
		c0.007-0.003,0.016-0.003,0.016-0.003s0.007,0.003,0.02,0.003v-0.003c4.369,0.009,3.796-4.867,3.796-4.867
		C1101.143,371.981,1097.504,366.925,1097.504,366.925z"/>
	<path fill="#00A4FF" d="M1159.593,256.534h-0.028c0,0-3.711,4.993-3.818,7.958c0,0-0.655,4.874,3.718,4.931v0.006
		c0.007-0.006,0.016-0.006,0.016-0.006s0.007,0.006,0.019,0.006v-0.006c4.37,0.013,3.797-4.871,3.797-4.871
		C1163.231,261.588,1159.593,256.534,1159.593,256.534z"/>
	<path fill="#00A4FF" d="M1042.596,225.234h-0.028c0,0-3.708,4.994-3.815,7.961c0,0-0.655,4.871,3.718,4.928v0.006
		c0.007-0.006,0.019-0.006,0.019-0.006s0.007,0.006,0.013,0.006v-0.006c4.37,0.013,3.796-4.864,3.796-4.864
		C1046.237,230.294,1042.596,225.234,1042.596,225.234z"/>
	<path fill="#00A4FF" d="M903.942,444.349h-0.028c0,0-3.711,4.99-3.818,7.958c0,0-0.655,4.871,3.718,4.931v0.003
		c0.006-0.003,0.016-0.003,0.016-0.003s0.006,0.003,0.019,0.003v-0.003c4.37,0.01,3.797-4.867,3.797-4.867
		C907.581,449.406,903.942,444.349,903.942,444.349z"/>
	<path fill="#00A4FF" d="M966.031,333.959h-0.028c0,0-3.712,4.993-3.818,7.958c0,0-0.655,4.874,3.718,4.931v0.006
		c0.006-0.006,0.016-0.006,0.016-0.006s0.006,0.006,0.019,0.006v-0.006c4.37,0.012,3.796-4.871,3.796-4.871
		C969.67,339.011,966.031,333.959,966.031,333.959z"/>
	<path fill="#00A4FF" d="M849.033,302.659h-0.027c0,0-3.709,4.993-3.815,7.962c0,0-0.655,4.87,3.718,4.927v0.007
		c0.006-0.007,0.019-0.007,0.019-0.007s0.006,0.007,0.013,0.007v-0.007c4.369,0.013,3.796-4.864,3.796-4.864
		C852.676,307.719,849.033,302.659,849.033,302.659z"/>
	<path fill="#00A4FF" d="M710.381,328.213h-0.029c0,0-3.711,4.99-3.818,7.958c0,0-0.654,4.87,3.718,4.93v0.004
		c0.007-0.004,0.017-0.004,0.017-0.004s0.006,0.004,0.019,0.004V341.1c4.369,0.01,3.796-4.867,3.796-4.867
		C714.02,333.268,710.381,328.213,710.381,328.213z"/>
	<path fill="#00A4FF" d="M772.469,217.821h-0.028c0,0-3.711,4.994-3.818,7.958c0,0-0.655,4.874,3.718,4.931v0.007
		c0.006-0.007,0.016-0.007,0.016-0.007s0.006,0.007,0.02,0.007v-0.007c4.369,0.013,3.796-4.87,3.796-4.87
		C776.107,222.875,772.469,217.821,772.469,217.821z"/>
	<path fill="#00A4FF" d="M655.472,186.522h-0.028c0,0-3.708,4.993-3.815,7.961c0,0-0.655,4.87,3.718,4.927v0.007
		c0.006-0.007,0.019-0.007,0.019-0.007s0.007,0.007,0.013,0.007v-0.007c4.37,0.013,3.797-4.863,3.797-4.863
		C659.113,191.582,655.472,186.522,655.472,186.522z"/>
	<path fill="#00A4FF" d="M1484.629,599.199h-0.029c0,0-3.711,4.99-3.818,7.958c0,0-0.654,4.871,3.718,4.931v0.003
		c0.007-0.003,0.017-0.003,0.017-0.003s0.006,0.003,0.019,0.003v-0.003c4.369,0.01,3.796-4.867,3.796-4.867
		C1488.268,604.256,1484.629,599.199,1484.629,599.199z"/>
	<path fill="#00A4FF" d="M1546.717,488.808h-0.028c0,0-3.711,4.993-3.818,7.958c0,0-0.655,4.874,3.718,4.931v0.006
		c0.006-0.006,0.016-0.006,0.016-0.006s0.006,0.006,0.02,0.006v-0.006c4.369,0.013,3.796-4.871,3.796-4.871
		C1550.355,493.861,1546.717,488.808,1546.717,488.808z"/>
	<path fill="#00A4FF" d="M1429.72,457.509h-0.028c0,0-3.708,4.994-3.815,7.962c0,0-0.655,4.87,3.718,4.927v0.006
		c0.006-0.006,0.019-0.006,0.019-0.006s0.007,0.006,0.013,0.006v-0.006c4.37,0.013,3.797-4.864,3.797-4.864
		C1433.361,462.568,1429.72,457.509,1429.72,457.509z"/>
	<path fill="#00A4FF" d="M1291.066,483.062h-0.028c0,0-3.711,4.99-3.818,7.958c0,0-0.655,4.87,3.718,4.93v0.004
		c0.006-0.004,0.016-0.004,0.016-0.004s0.006,0.004,0.019,0.004v-0.004c4.37,0.01,3.797-4.867,3.797-4.867
		C1294.705,488.118,1291.066,483.062,1291.066,483.062z"/>
	<path fill="#00A4FF" d="M1353.155,372.671h-0.028c0,0-3.711,4.994-3.818,7.958c0,0-0.655,4.874,3.717,4.931v0.007
		c0.007-0.007,0.016-0.007,0.016-0.007s0.007,0.007,0.02,0.007v-0.007c4.369,0.013,3.796-4.87,3.796-4.87
		C1356.794,377.724,1353.155,372.671,1353.155,372.671z"/>
	<path fill="#00A4FF" d="M1236.158,341.372h-0.029c0,0-3.707,4.993-3.814,7.961c0,0-0.655,4.87,3.717,4.927v0.007
		c0.007-0.007,0.02-0.007,0.02-0.007s0.006,0.007,0.013,0.007v-0.007c4.369,0.013,3.796-4.863,3.796-4.863
		C1239.8,346.431,1236.158,341.372,1236.158,341.372z"/>
	<path fill="#00A4FF" d="M1097.504,560.487h-0.027c0,0-3.712,4.99-3.818,7.958c0,0-0.656,4.87,3.717,4.93v0.004
		c0.007-0.004,0.016-0.004,0.016-0.004s0.007,0.004,0.02,0.004v-0.004c4.369,0.01,3.796-4.867,3.796-4.867
		C1101.143,565.543,1097.504,560.487,1097.504,560.487z"/>
	<path fill="#00A4FF" d="M1159.593,450.095h-0.028c0,0-3.711,4.994-3.818,7.958c0,0-0.655,4.874,3.718,4.931v0.007
		c0.007-0.007,0.016-0.007,0.016-0.007s0.007,0.007,0.019,0.007v-0.007c4.37,0.013,3.797-4.87,3.797-4.87
		C1163.231,455.149,1159.593,450.095,1159.593,450.095z"/>
	<path fill="#00A4FF" d="M1042.596,418.797h-0.028c0,0-3.708,4.993-3.815,7.961c0,0-0.655,4.87,3.718,4.928v0.006
		c0.007-0.006,0.019-0.006,0.019-0.006s0.007,0.006,0.013,0.006v-0.006c4.37,0.012,3.796-4.865,3.796-4.865
		C1046.237,423.856,1042.596,418.797,1042.596,418.797z"/>
	<path fill="#00A4FF" d="M903.942,637.912h-0.028c0,0-3.711,4.99-3.818,7.958c0,0-0.655,4.87,3.718,4.93v0.004
		c0.006-0.004,0.016-0.004,0.016-0.004s0.006,0.004,0.019,0.004V650.8c4.37,0.01,3.797-4.867,3.797-4.867
		C907.581,642.968,903.942,637.912,903.942,637.912z"/>
	<path fill="#00A4FF" d="M966.031,527.52h-0.028c0,0-3.712,4.994-3.818,7.958c0,0-0.655,4.874,3.718,4.931v0.007
		c0.006-0.007,0.016-0.007,0.016-0.007s0.006,0.007,0.019,0.007v-0.007c4.37,0.013,3.796-4.87,3.796-4.87
		C969.67,532.574,966.031,527.52,966.031,527.52z"/>
	<path fill="#00A4FF" d="M849.033,496.221h-0.027c0,0-3.709,4.993-3.815,7.961c0,0-0.655,4.87,3.718,4.927v0.007
		c0.006-0.007,0.019-0.007,0.019-0.007s0.006,0.007,0.013,0.007v-0.007c4.369,0.013,3.796-4.863,3.796-4.863
		C852.676,501.281,849.033,496.221,849.033,496.221z"/>
	<path fill="#00A4FF" d="M710.381,521.774h-0.029c0,0-3.711,4.99-3.818,7.958c0,0-0.654,4.871,3.718,4.931v0.003
		c0.007-0.003,0.017-0.003,0.017-0.003s0.006,0.003,0.019,0.003v-0.003c4.369,0.01,3.796-4.867,3.796-4.867
		C714.02,526.831,710.381,521.774,710.381,521.774z"/>
	<path fill="#00A4FF" d="M772.469,411.384h-0.028c0,0-3.711,4.993-3.818,7.958c0,0-0.655,4.874,3.718,4.931v0.006
		c0.006-0.006,0.016-0.006,0.016-0.006s0.006,0.006,0.02,0.006v-0.006c4.369,0.013,3.796-4.871,3.796-4.871
		C776.107,416.437,772.469,411.384,772.469,411.384z"/>
	<path fill="#00A4FF" d="M655.472,380.084h-0.028c0,0-3.708,4.994-3.815,7.961c0,0-0.655,4.871,3.718,4.928v0.006
		c0.006-0.006,0.019-0.006,0.019-0.006s0.007,0.006,0.013,0.006v-0.006c4.37,0.013,3.797-4.864,3.797-4.864
		C659.113,385.143,655.472,380.084,655.472,380.084z"/>
	<path fill="#00A4FF" d="M1484.629,792.761h-0.029c0,0-3.711,4.99-3.818,7.958c0,0-0.654,4.87,3.718,4.93v0.004
		c0.007-0.004,0.017-0.004,0.017-0.004s0.006,0.004,0.019,0.004v-0.004c4.369,0.01,3.796-4.867,3.796-4.867
		C1488.268,797.817,1484.629,792.761,1484.629,792.761z"/>
	<path fill="#00A4FF" d="M1546.717,682.37h-0.028c0,0-3.711,4.994-3.818,7.958c0,0-0.655,4.874,3.718,4.931v0.007
		c0.006-0.007,0.016-0.007,0.016-0.007s0.006,0.007,0.02,0.007v-0.007c4.369,0.013,3.796-4.87,3.796-4.87
		C1550.355,687.424,1546.717,682.37,1546.717,682.37z"/>
	<path fill="#00A4FF" d="M1429.72,651.071h-0.028c0,0-3.708,4.993-3.815,7.961c0,0-0.655,4.87,3.718,4.927v0.007
		c0.006-0.007,0.019-0.007,0.019-0.007s0.007,0.007,0.013,0.007v-0.007c4.37,0.013,3.797-4.863,3.797-4.863
		C1433.361,656.131,1429.72,651.071,1429.72,651.071z"/>
	<path fill="#00A4FF" d="M1291.066,676.624h-0.028c0,0-3.711,4.99-3.818,7.958c0,0-0.655,4.871,3.718,4.931v0.003
		c0.006-0.003,0.016-0.003,0.016-0.003s0.006,0.003,0.019,0.003v-0.003c4.37,0.01,3.797-4.867,3.797-4.867
		C1294.705,681.68,1291.066,676.624,1291.066,676.624z"/>
	<path fill="#00A4FF" d="M1353.155,566.233h-0.028c0,0-3.711,4.993-3.818,7.958c0,0-0.655,4.874,3.717,4.931v0.006
		c0.007-0.006,0.016-0.006,0.016-0.006s0.007,0.006,0.02,0.006v-0.006c4.369,0.013,3.796-4.871,3.796-4.871
		C1356.794,571.287,1353.155,566.233,1353.155,566.233z"/>
	<path fill="#00A4FF" d="M1236.158,534.933h-0.029c0,0-3.707,4.994-3.814,7.961c0,0-0.655,4.871,3.717,4.928v0.006
		c0.007-0.006,0.02-0.006,0.02-0.006s0.006,0.006,0.013,0.006v-0.006c4.369,0.013,3.796-4.864,3.796-4.864
		C1239.8,539.993,1236.158,534.933,1236.158,534.933z"/>
	<path fill="#00A4FF" d="M1097.504,754.049h-0.027c0,0-3.712,4.99-3.818,7.958c0,0-0.656,4.871,3.717,4.931v0.003
		c0.007-0.003,0.016-0.003,0.016-0.003s0.007,0.003,0.02,0.003v-0.003c4.369,0.01,3.796-4.867,3.796-4.867
		C1101.143,759.105,1097.504,754.049,1097.504,754.049z"/>
	<path fill="#00A4FF" d="M1159.593,643.658h-0.028c0,0-3.711,4.993-3.818,7.958c0,0-0.655,4.874,3.718,4.931v0.006
		c0.007-0.006,0.016-0.006,0.016-0.006s0.007,0.006,0.019,0.006v-0.006c4.37,0.013,3.797-4.871,3.797-4.871
		C1163.231,648.711,1159.593,643.658,1159.593,643.658z"/>
	<path fill="#00A4FF" d="M1042.596,612.358h-0.028c0,0-3.708,4.994-3.815,7.962c0,0-0.655,4.87,3.718,4.927v0.006
		c0.007-0.006,0.019-0.006,0.019-0.006s0.007,0.006,0.013,0.006v-0.006c4.37,0.013,3.796-4.864,3.796-4.864
		C1046.237,617.418,1042.596,612.358,1042.596,612.358z"/>
	<path fill="#00A4FF" d="M903.942,831.473h-0.028c0,0-3.711,4.99-3.818,7.958c0,0-0.655,4.871,3.718,4.931v0.003
		c0.006-0.003,0.016-0.003,0.016-0.003s0.006,0.003,0.019,0.003v-0.003c4.37,0.01,3.797-4.867,3.797-4.867
		C907.581,836.53,903.942,831.473,903.942,831.473z"/>
	<path fill="#00A4FF" d="M966.031,721.083h-0.028c0,0-3.712,4.993-3.818,7.958c0,0-0.655,4.874,3.718,4.931v0.006
		c0.006-0.006,0.016-0.006,0.016-0.006s0.006,0.006,0.019,0.006v-0.006c4.37,0.013,3.796-4.871,3.796-4.871
		C969.67,726.136,966.031,721.083,966.031,721.083z"/>
	<path fill="#00A4FF" d="M849.033,689.783h-0.027c0,0-3.709,4.994-3.815,7.961c0,0-0.655,4.871,3.718,4.928v0.006
		c0.006-0.006,0.019-0.006,0.019-0.006s0.006,0.006,0.013,0.006v-0.006c4.369,0.013,3.796-4.864,3.796-4.864
		C852.676,694.843,849.033,689.783,849.033,689.783z"/>
	<path fill="#00A4FF" d="M710.381,715.337h-0.029c0,0-3.711,4.99-3.818,7.958c0,0-0.654,4.87,3.718,4.93v0.004
		c0.007-0.004,0.017-0.004,0.017-0.004s0.006,0.004,0.019,0.004v-0.004c4.369,0.01,3.796-4.867,3.796-4.867
		C714.02,720.392,710.381,715.337,710.381,715.337z"/>
	<path fill="#00A4FF" d="M772.469,604.945h-0.028c0,0-3.711,4.994-3.818,7.958c0,0-0.655,4.874,3.718,4.931v0.007
		c0.006-0.007,0.016-0.007,0.016-0.007s0.006,0.007,0.02,0.007v-0.007c4.369,0.013,3.796-4.87,3.796-4.87
		C776.107,609.999,772.469,604.945,772.469,604.945z"/>
	<path fill="#00A4FF" d="M655.472,573.646h-0.028c0,0-3.708,4.993-3.815,7.961c0,0-0.655,4.87,3.718,4.928v0.006
		c0.006-0.006,0.019-0.006,0.019-0.006s0.007,0.006,0.013,0.006v-0.006c4.37,0.012,3.797-4.865,3.797-4.865
		C659.113,578.706,655.472,573.646,655.472,573.646z"/>
	<path fill="#00A4FF" d="M1546.717,875.932h-0.028c0,0-3.711,4.993-3.818,7.958c0,0-0.655,4.874,3.718,4.931v0.006
		c0.006-0.006,0.016-0.006,0.016-0.006s0.006,0.006,0.02,0.006v-0.006c4.369,0.013,3.796-4.871,3.796-4.871
		C1550.355,880.986,1546.717,875.932,1546.717,875.932z"/>
	<path fill="#00A4FF" d="M1429.72,844.633h-0.028c0,0-3.708,4.994-3.815,7.961c0,0-0.655,4.871,3.718,4.928v0.006
		c0.006-0.006,0.019-0.006,0.019-0.006s0.007,0.006,0.013,0.006v-0.006c4.37,0.013,3.797-4.864,3.797-4.864
		C1433.361,849.692,1429.72,844.633,1429.72,844.633z"/>
	<path fill="#00A4FF" d="M1291.066,870.186h-0.028c0,0-3.711,4.99-3.818,7.958c0,0-0.655,4.87,3.718,4.93v0.004
		c0.006-0.004,0.016-0.004,0.016-0.004s0.006,0.004,0.019,0.004v-0.004c4.37,0.01,3.797-4.867,3.797-4.867
		C1294.705,875.242,1291.066,870.186,1291.066,870.186z"/>
	<path fill="#00A4FF" d="M1353.155,759.795h-0.028c0,0-3.711,4.994-3.818,7.958c0,0-0.655,4.874,3.717,4.931v0.007
		c0.007-0.007,0.016-0.007,0.016-0.007s0.007,0.007,0.02,0.007v-0.007c4.369,0.013,3.796-4.87,3.796-4.87
		C1356.794,764.848,1353.155,759.795,1353.155,759.795z"/>
	<path fill="#00A4FF" d="M1236.158,728.496h-0.029c0,0-3.707,4.993-3.814,7.961c0,0-0.655,4.87,3.717,4.928v0.006
		c0.007-0.006,0.02-0.006,0.02-0.006s0.006,0.006,0.013,0.006v-0.006c4.369,0.012,3.796-4.865,3.796-4.865
		C1239.8,733.555,1236.158,728.496,1236.158,728.496z"/>
	<path fill="#00A4FF" d="M1097.504,947.611h-0.027c0,0-3.712,4.99-3.818,7.958c0,0-0.656,4.87,3.717,4.93v0.004
		c0.007-0.004,0.016-0.004,0.016-0.004s0.007,0.004,0.02,0.004v-0.004c4.369,0.01,3.796-4.867,3.796-4.867
		C1101.143,952.667,1097.504,947.611,1097.504,947.611z"/>
	<path fill="#00A4FF" d="M1159.593,837.219h-0.028c0,0-3.711,4.994-3.818,7.958c0,0-0.655,4.874,3.718,4.931v0.007
		c0.007-0.007,0.016-0.007,0.016-0.007s0.007,0.007,0.019,0.007v-0.007c4.37,0.013,3.797-4.87,3.797-4.87
		C1163.231,842.273,1159.593,837.219,1159.593,837.219z"/>
	<path fill="#00A4FF" d="M1042.596,805.921h-0.028c0,0-3.708,4.993-3.815,7.961c0,0-0.655,4.87,3.718,4.927v0.007
		c0.007-0.007,0.019-0.007,0.019-0.007s0.007,0.007,0.013,0.007v-0.007c4.37,0.013,3.796-4.863,3.796-4.863
		C1046.237,810.98,1042.596,805.921,1042.596,805.921z"/>
	<path fill="#00A4FF" d="M966.031,914.644h-0.028c0,0-3.712,4.994-3.818,7.958c0,0-0.655,4.874,3.718,4.931v0.007
		c0.006-0.007,0.016-0.007,0.016-0.007s0.006,0.007,0.019,0.007v-0.007c4.37,0.013,3.796-4.87,3.796-4.87
		C969.67,919.698,966.031,914.644,966.031,914.644z"/>
	<path fill="#00A4FF" d="M849.033,883.345h-0.027c0,0-3.709,4.993-3.815,7.961c0,0-0.655,4.87,3.718,4.928v0.006
		c0.006-0.006,0.019-0.006,0.019-0.006s0.006,0.006,0.013,0.006v-0.006c4.369,0.012,3.796-4.865,3.796-4.865
		C852.676,888.405,849.033,883.345,849.033,883.345z"/>
	<path fill="#00A4FF" d="M710.381,908.898h-0.029c0,0-3.711,4.99-3.818,7.958c0,0-0.654,4.871,3.718,4.931v0.003
		c0.007-0.003,0.017-0.003,0.017-0.003s0.006,0.003,0.019,0.003v-0.003c4.369,0.01,3.796-4.867,3.796-4.867
		C714.02,913.955,710.381,908.898,710.381,908.898z"/>
	<path fill="#00A4FF" d="M772.469,798.508h-0.028c0,0-3.711,4.993-3.818,7.958c0,0-0.655,4.874,3.718,4.931v0.006
		c0.006-0.006,0.016-0.006,0.016-0.006s0.006,0.006,0.02,0.006v-0.006c4.369,0.013,3.796-4.871,3.796-4.871
		C776.107,803.56,772.469,798.508,772.469,798.508z"/>
	<path fill="#00A4FF" d="M655.472,767.208h-0.028c0,0-3.708,4.994-3.815,7.962c0,0-0.655,4.87,3.718,4.927v0.007
		c0.006-0.007,0.019-0.007,0.019-0.007s0.007,0.007,0.013,0.007v-0.007c4.37,0.013,3.797-4.864,3.797-4.864
		C659.113,772.267,655.472,767.208,655.472,767.208z"/>
	<path fill="#00A4FF" d="M1353.155,953.357h-0.028c0,0-3.711,4.993-3.818,7.958c0,0-0.655,4.874,3.717,4.931v0.006
		c0.007-0.006,0.016-0.006,0.016-0.006s0.007,0.006,0.02,0.006v-0.006c4.369,0.013,3.796-4.871,3.796-4.871
		C1356.794,958.411,1353.155,953.357,1353.155,953.357z"/>
	<path fill="#00A4FF" d="M1236.158,922.057h-0.029c0,0-3.707,4.994-3.814,7.962c0,0-0.655,4.87,3.717,4.927v0.006
		c0.007-0.006,0.02-0.006,0.02-0.006s0.006,0.006,0.013,0.006v-0.006c4.369,0.013,3.796-4.864,3.796-4.864
		C1239.8,927.117,1236.158,922.057,1236.158,922.057z"/>
	<path fill="#00A4FF" d="M659.174,968.798c-0.066-2.968-3.702-8.024-3.702-8.024h-0.028c0,0-3.708,4.993-3.815,7.961
		c0,0-0.091,0.807,0.069,1.768h7.391C659.252,969.569,659.174,968.798,659.174,968.798z"/>
</g>
</svg>
