<?xml version="1.0" encoding="utf-8"?>
<!-- Generator: Adobe Illustrator 16.0.0, SVG Export Plug-In . SVG Version: 6.00 Build 0)  -->
<!DOCTYPE svg PUBLIC "-//W3C//DTD SVG 1.1//EN" "http://www.w3.org/Graphics/SVG/1.1/DTD/svg11.dtd">
<svg version="1.1" id="Layer_1" xmlns="http://www.w3.org/2000/svg" xmlns:xlink="http://www.w3.org/1999/xlink" x="0px" y="0px"
	 width="25.645px" height="13.61px" viewBox="0 0 25.645 13.61" enable-background="new 0 0 25.645 13.61" xml:space="preserve">
<path fill="#6CFF70" d="M25.611,0.685c0,0-11.932,1.073-9.546,9.4l0.03,0.069l-2.522,2.489c-0.052,0.05-0.088,0.108-0.117,0.171
	c-0.026-0.057-0.059-0.11-0.104-0.157L9.676,9.005c1.894-7.959-9.642-9.004-9.642-9.004L0,0l0.003,0.032
	c0,0,1.029,11.559,8.858,9.736l3.704,3.68c0.109,0.108,0.249,0.162,0.393,0.162s0.287-0.054,0.396-0.164
	c0.049-0.049,0.084-0.107,0.112-0.168c0.025,0.055,0.055,0.109,0.101,0.154c0.108,0.111,0.253,0.166,0.396,0.166
	c0.142,0,0.283-0.053,0.392-0.161l2.927-2.884c7.378,1.229,8.362-9.838,8.362-9.838l0.002-0.033L25.611,0.685z"/>
</svg>
