<?xml version="1.0" encoding="utf-8"?>
<!-- Generator: Adobe Illustrator 16.0.0, SVG Export Plug-In . SVG Version: 6.00 Build 0)  -->
<!DOCTYPE svg PUBLIC "-//W3C//DTD SVG 1.1//EN" "http://www.w3.org/Graphics/SVG/1.1/DTD/svg11.dtd">
<svg version="1.1" id="Layer_1" xmlns="http://www.w3.org/2000/svg" xmlns:xlink="http://www.w3.org/1999/xlink" x="0px" y="0px"
	 width="11.088px" height="17.492px" viewBox="0 0 11.088 17.492" enable-background="new 0 0 11.088 17.492" xml:space="preserve">
<g>
	<path fill="#6CFF70" d="M11.031,10.742C10.834,6.723,5.356,0,5.356,0L5.324,0.001c0,0-5.238,6.91-5.295,10.934
		c0,0-0.773,6.636,5.59,6.556v0.002c0.008,0,0.014-0.002,0.021-0.002c0.007,0,0.013,0,0.021,0v-0.001
		C12.025,17.347,11.031,10.742,11.031,10.742z M4.949,14.57c-0.059,0.558-0.523,0.973-1.07,0.973c-0.038,0-0.076-0.001-0.114-0.007
		c-1.245-0.128-1.921-1.164-2.023-2.071c-0.065-0.596,0.362-1.135,0.958-1.2c0.592-0.069,1.121,0.352,1.198,0.937
		c0.011,0.063,0.05,0.154,0.075,0.178C4.57,13.44,5.012,13.974,4.949,14.57z"/>
</g>
</svg>
