<?xml version="1.0" encoding="utf-8"?>
<!-- Generator: Adobe Illustrator 16.0.0, SVG Export Plug-In . SVG Version: 6.00 Build 0)  -->
<!DOCTYPE svg PUBLIC "-//W3C//DTD SVG 1.1//EN" "http://www.w3.org/Graphics/SVG/1.1/DTD/svg11.dtd">
<svg version="1.1" id="Layer_1" xmlns="http://www.w3.org/2000/svg" xmlns:xlink="http://www.w3.org/1999/xlink" x="0px" y="0px"
	 width="19.161px" height="15.597px" viewBox="0 0 19.161 15.597" enable-background="new 0 0 19.161 15.597" xml:space="preserve">
<path fill="#6CFF70" stroke="#6CFF70" stroke-width="0.5" stroke-miterlimit="10" d="M0.868,14.848l1.306-0.861
	c0.056,0.067,0.128,0.121,0.22,0.141l5.751,1.211c0.215,0.046,0.427-0.091,0.472-0.307c0.046-0.216-0.093-0.427-0.308-0.472
	L3.001,13.44l4.188-2.765c0.055,0.084,0.142,0.147,0.249,0.17l5.75,1.212c0.214,0.045,0.427-0.092,0.472-0.307
	c0.045-0.216-0.093-0.428-0.309-0.473L7.99,10.147l4.434-2.926c0.055,0.091,0.144,0.16,0.255,0.183l5.75,1.212
	c0.215,0.046,0.428-0.092,0.473-0.307c0.045-0.216-0.092-0.428-0.308-0.473l-5.382-1.135l5.428-3.582
	c0.183-0.12,0.234-0.368,0.114-0.553c-0.122-0.183-0.369-0.233-0.552-0.112l-5.347,3.528l1.046-5.258
	c0.043-0.216-0.097-0.425-0.313-0.468c-0.154-0.03-0.303,0.03-0.392,0.146c-0.038,0.048-0.064,0.104-0.077,0.167l-1.147,5.764
	c-0.015,0.075-0.001,0.148,0.024,0.215L7.611,9.444l1.05-5.277c0.043-0.216-0.098-0.426-0.313-0.469
	c-0.154-0.03-0.304,0.031-0.393,0.146C7.919,3.893,7.891,3.949,7.878,4.012L6.731,9.774c-0.016,0.081,0.001,0.159,0.031,0.229
	L2.555,12.78l1.062-5.333C3.66,7.232,3.519,7.022,3.303,6.979C3.151,6.949,3,7.01,2.911,7.126C2.874,7.173,2.847,7.229,2.835,7.293
	l-1.147,5.764c-0.018,0.095,0.003,0.187,0.046,0.266l-1.305,0.86c-0.038,0.025-0.068,0.056-0.094,0.089
	c-0.103,0.131-0.115,0.316-0.019,0.463C0.438,14.918,0.685,14.969,0.868,14.848z"/>
</svg>
