<?xml version="1.0" encoding="utf-8"?>
<!-- Generator: Adobe Illustrator 16.0.0, SVG Export Plug-In . SVG Version: 6.00 Build 0)  -->
<!DOCTYPE svg PUBLIC "-//W3C//DTD SVG 1.1//EN" "http://www.w3.org/Graphics/SVG/1.1/DTD/svg11.dtd">
<svg version="1.1" id="Layer_1" xmlns="http://www.w3.org/2000/svg" xmlns:xlink="http://www.w3.org/1999/xlink" x="0px" y="0px"
	 width="16.11px" height="14.316px" viewBox="0 0 16.11 14.316" enable-background="new 0 0 16.11 14.316" xml:space="preserve">
<path fill="#6CFF70" d="M7.348,3.93c0.214-1.546-1.173-3.325-2.967-3.81C2.565-0.369,0.687,0.681,0.196,2.46
	c-0.02,0.07-0.035,0.137-0.05,0.205c-1.265,6.57,6.044,10.904,7.409,11.651c1.362-0.585,9.135-4.232,8.521-10.927
	c-0.007-0.066-0.017-0.137-0.028-0.206c-0.313-1.822-2.072-3.042-3.919-2.724C10.3,0.773,8.749,2.418,8.81,3.979
	c0.014,0.336-0.248,0.619-0.584,0.632c-0.009,0-0.017,0-0.024,0c-0.029,0-0.056-0.012-0.083-0.017
	C8.039,4.618,7.954,4.626,7.867,4.615C7.533,4.569,7.302,4.262,7.348,3.93z"/>
</svg>
