<?xml version="1.0" encoding="utf-8"?>
<!-- Generator: Adobe Illustrator 16.0.0, SVG Export Plug-In . SVG Version: 6.00 Build 0)  -->
<!DOCTYPE svg PUBLIC "-//W3C//DTD SVG 1.1//EN" "http://www.w3.org/Graphics/SVG/1.1/DTD/svg11.dtd">
<svg version="1.1" id="Layer_1" xmlns="http://www.w3.org/2000/svg" xmlns:xlink="http://www.w3.org/1999/xlink" x="0px" y="0px"
	 width="20.755px" height="14.942px" viewBox="0 0 20.755 14.942" enable-background="new 0 0 20.755 14.942" xml:space="preserve">
<path fill="#6CFF70" d="M20.695,0.196c0,0-21.599-2.753-20.666,12.4l2.913-1.806l0.946-5.066c0.047-0.256,0.294-0.429,0.55-0.376
	c0.256,0.047,0.425,0.292,0.376,0.55l-0.788,4.221l1.352-0.837l0.939-5.036c0.047-0.256,0.293-0.429,0.55-0.377
	c0.256,0.048,0.424,0.293,0.377,0.55l-0.782,4.19l1.334-0.825l0.939-5.036C8.783,2.492,9.03,2.319,9.286,2.372
	C9.542,2.419,9.71,2.665,9.662,2.92L8.88,7.112l4.116-2.551c0.221-0.14,0.512-0.069,0.648,0.151c0.138,0.222,0.07,0.513-0.152,0.649
	L9.389,7.905l4.295,1.062c0.253,0.063,0.406,0.318,0.344,0.571c-0.053,0.214-0.245,0.358-0.457,0.358
	c-0.037,0-0.076-0.005-0.114-0.015l-5.19-1.282L6.972,9.403l4.295,1.062c0.254,0.063,0.408,0.318,0.345,0.57
	c-0.053,0.214-0.246,0.359-0.458,0.359c-0.038,0-0.076-0.005-0.114-0.015l-5.188-1.282l-1.278,0.792l4.264,1.054
	c0.251,0.062,0.406,0.317,0.344,0.571c-0.053,0.215-0.246,0.358-0.457,0.358c-0.037,0-0.076-0.006-0.114-0.014l-5.157-1.275
	L0.522,13.4C14.336,20.598,20.74,0.261,20.74,0.261l0.015-0.058L20.695,0.196z"/>
</svg>
