<?xml version="1.0" encoding="UTF-8" standalone="no"?>
<!-- Created with Inkscape (http://www.inkscape.org/) -->

<svg
   xmlns:dc="http://purl.org/dc/elements/1.1/"
   xmlns:cc="http://creativecommons.org/ns#"
   xmlns:rdf="http://www.w3.org/1999/02/22-rdf-syntax-ns#"
   xmlns:svg="http://www.w3.org/2000/svg"
   xmlns="http://www.w3.org/2000/svg"
   xmlns:sodipodi="http://sodipodi.sourceforge.net/DTD/sodipodi-0.dtd"
   xmlns:inkscape="http://www.inkscape.org/namespaces/inkscape"
   width="12.979129mm"
   height="10.76743mm"
   viewBox="0 0 12.979129 10.76743"
   version="1.1"
   id="svg11275"
   inkscape:version="0.92.1 r15371"
   sodipodi:docname="tuin1.svg">
  <defs
     id="defs11269" />
  <sodipodi:namedview
     id="base"
     pagecolor="#ffffff"
     bordercolor="#666666"
     borderopacity="1.0"
     inkscape:pageopacity="0.0"
     inkscape:pageshadow="2"
     inkscape:zoom="5.6"
     inkscape:cx="8.1865827"
     inkscape:cy="33.442465"
     inkscape:document-units="mm"
     inkscape:current-layer="layer1"
     showgrid="false"
     fit-margin-top="0.6"
     fit-margin-left="0"
     fit-margin-right="0"
     fit-margin-bottom="0"
     inkscape:window-width="1920"
     inkscape:window-height="1043"
     inkscape:window-x="1920"
     inkscape:window-y="0"
     inkscape:window-maximized="1" />
  <metadata
     id="metadata11272">
    <rdf:RDF>
      <cc:Work
         rdf:about="">
        <dc:format>image/svg+xml</dc:format>
        <dc:type
           rdf:resource="http://purl.org/dc/dcmitype/StillImage" />
        <dc:title></dc:title>
      </cc:Work>
    </rdf:RDF>
  </metadata>
  <g
     inkscape:label="Layer 1"
     inkscape:groupmode="layer"
     id="layer1"
     transform="translate(465.35266,-306.23533)">
    <g
       transform="translate(-395.3631,295.11655)"
       id="layer1-6"
       inkscape:label="Layer 1">
      <g
         transform="matrix(0.35277777,0,0,-0.35277777,-67.056301,12.682315)"
         id="g5712">
        <path
           inkscape:connector-curvature="0"
           id="path5714"
           style="fill:#6cff70;fill-opacity:1;fill-rule:nonzero;stroke:none"
           d="M 0,0 9.713,3.907 20.061,0.317 9.871,-3.84 Z" />
      </g>
      <g
         transform="matrix(0.35277777,0,0,-0.35277777,-64.875711,14.843254)"
         id="g5720">
        <path
           inkscape:connector-curvature="0"
           id="path5722"
           style="fill:#756e5e;fill-opacity:1;fill-rule:nonzero;stroke:none"
           d="M 0,0 0.941,-0.593 V 0.236 L 0,0.829 Z m 1.281,-1.55 c -0.062,0 -0.125,0.017 -0.181,0.051 l -1.622,1.022 c -0.099,0.063 -0.159,0.171 -0.159,0.289 v 1.635 c 0,0.124 0.067,0.238 0.176,0.298 0.109,0.059 0.241,0.055 0.346,-0.01 L 1.463,0.713 C 1.562,0.65 1.622,0.542 1.622,0.425 V -1.21 C 1.622,-1.334 1.555,-1.448 1.446,-1.508 1.395,-1.536 1.338,-1.55 1.281,-1.55 M 0,-4.02 0.941,-4.613 v 0.83 L 0,-3.19 Z m 1.281,-1.55 c -0.062,0 -0.125,0.017 -0.181,0.052 l -1.622,1.022 c -0.099,0.062 -0.159,0.171 -0.159,0.288 v 1.635 c 0,0.124 0.067,0.239 0.176,0.299 0.109,0.059 0.241,0.056 0.346,-0.01 L 1.463,-3.306 C 1.562,-3.369 1.622,-3.478 1.622,-3.595 V -5.23 C 1.622,-5.354 1.555,-5.468 1.446,-5.528 1.395,-5.557 1.338,-5.57 1.281,-5.57 M 0,-8.04 0.941,-8.632 v 0.83 L 0,-7.209 Z m 1.281,-1.55 c -0.062,0 -0.125,0.017 -0.181,0.053 l -1.622,1.021 c -0.099,0.063 -0.159,0.172 -0.159,0.289 v 1.634 c 0,0.124 0.067,0.239 0.176,0.299 0.109,0.059 0.241,0.056 0.346,-0.01 L 1.463,-7.326 C 1.562,-7.389 1.622,-7.498 1.622,-7.615 V -9.25 C 1.622,-9.374 1.555,-9.488 1.446,-9.548 1.395,-9.577 1.338,-9.59 1.281,-9.59 M 0,-12.059 0.941,-12.652 v 0.83 L 0,-11.229 Z m 1.281,-1.55 c -0.062,0 -0.125,0.017 -0.181,0.052 l -1.622,1.022 c -0.099,0.062 -0.159,0.171 -0.159,0.288 v 1.635 c 0,0.124 0.067,0.238 0.176,0.299 0.109,0.06 0.241,0.055 0.346,-0.011 l 1.622,-1.022 c 0.099,-0.062 0.159,-0.171 0.159,-0.287 v -1.636 c 0,-0.124 -0.067,-0.238 -0.176,-0.298 -0.051,-0.028 -0.108,-0.042 -0.165,-0.042" />
      </g>
      <g
         transform="matrix(0.35277777,0,0,-0.35277777,-66.706768,12.707114)"
         id="g5724">
        <path
           inkscape:connector-curvature="0"
           id="path5726"
           style="fill:#756e5e;fill-opacity:1;fill-rule:nonzero;stroke:none"
           d="m 0,0 8.885,-3.164 9.35,3.395 -9.402,3.345 z m 8.887,-3.866 c -0.039,0 -0.077,0.006 -0.115,0.019 l -9.844,3.506 c -0.134,0.047 -0.223,0.172 -0.227,0.314 -0.003,0.141 0.082,0.269 0.213,0.322 L 8.698,4.256 C 8.775,4.287 8.861,4.288 8.939,4.261 L 19.356,0.556 c 0.136,-0.048 0.226,-0.176 0.227,-0.32 0,-0.144 -0.09,-0.272 -0.225,-0.321 L 9.002,-3.846 C 8.965,-3.859 8.926,-3.866 8.887,-3.866" />
      </g>
      <g
         transform="matrix(0.35277777,0,0,-0.35277777,-66.525052,14.082067)"
         id="g5728">
        <path
           inkscape:connector-curvature="0"
           id="path5730"
           style="fill:#756e5e;fill-opacity:1;fill-rule:nonzero;stroke:none"
           d="M 0,0 1.38,-0.694 V 0.202 L 0,0.896 Z m 1.721,-1.587 c -0.053,0 -0.104,0.012 -0.153,0.037 l -2.062,1.036 c -0.115,0.057 -0.187,0.176 -0.187,0.305 v 1.656 c 0,0.119 0.061,0.228 0.161,0.291 0.101,0.062 0.227,0.067 0.332,0.014 L 1.874,0.716 C 1.989,0.658 2.062,0.541 2.062,0.412 V -1.246 C 2.062,-1.364 2,-1.474 1.899,-1.536 1.845,-1.57 1.783,-1.587 1.721,-1.587 M 0,-4.031 1.38,-4.725 V -3.83 L 0,-3.136 Z m 1.721,-1.587 c -0.053,0 -0.104,0.012 -0.153,0.036 l -2.062,1.037 c -0.115,0.057 -0.187,0.175 -0.187,0.303 v 1.658 c 0,0.118 0.061,0.228 0.161,0.29 0.101,0.062 0.227,0.067 0.332,0.014 L 1.874,-3.315 C 1.989,-3.373 2.062,-3.491 2.062,-3.62 V -5.277 C 2.062,-5.396 2,-5.505 1.899,-5.567 1.845,-5.601 1.783,-5.618 1.721,-5.618 M 0,-8.063 1.38,-8.757 v 0.896 L 0,-7.168 Z m 1.721,-1.586 c -0.053,0 -0.104,0.011 -0.153,0.035 l -2.062,1.036 c -0.115,0.058 -0.187,0.176 -0.187,0.305 v 1.658 c 0,0.117 0.061,0.228 0.161,0.289 0.101,0.063 0.227,0.068 0.332,0.015 L 1.874,-7.348 C 1.989,-7.405 2.062,-7.523 2.062,-7.651 V -9.309 C 2.062,-9.427 2,-9.537 1.899,-9.599 1.845,-9.632 1.783,-9.649 1.721,-9.649 M 0,-12.095 1.38,-12.789 v 0.896 L 0,-11.199 Z m 1.721,-1.586 c -0.053,0 -0.104,0.012 -0.153,0.036 l -2.062,1.036 c -0.115,0.058 -0.187,0.176 -0.187,0.305 v 1.657 c 0,0.118 0.061,0.228 0.161,0.29 0.101,0.062 0.227,0.067 0.332,0.014 l 2.062,-1.035 c 0.115,-0.058 0.188,-0.176 0.188,-0.305 v -1.658 C 2.062,-13.459 2,-13.569 1.899,-13.63 1.845,-13.664 1.783,-13.681 1.721,-13.681 M 0,-16.126 1.38,-16.82 v 0.895 L 0,-15.231 Z m 1.721,-1.587 c -0.053,0 -0.104,0.012 -0.153,0.037 l -2.062,1.036 c -0.115,0.057 -0.187,0.175 -0.187,0.304 v 1.657 c 0,0.119 0.061,0.228 0.161,0.291 0.101,0.061 0.227,0.068 0.332,0.014 l 2.062,-1.037 c 0.115,-0.057 0.188,-0.175 0.188,-0.304 v -1.657 C 2.062,-17.49 2,-17.6 1.899,-17.662 1.845,-17.696 1.783,-17.713 1.721,-17.713 m 6.648,-4.409 c -0.053,0 -0.102,0.012 -0.146,0.034 l -9.94,4.464 c -0.123,0.055 -0.201,0.177 -0.201,0.311 V 3.521 c 0,0.187 0.152,0.34 0.34,0.34 0.188,0 0.341,-0.153 0.341,-0.34 v -20.614 l 9.265,-4.161 V -0.041 C 8.028,0.147 8.181,0.3 8.369,0.3 8.557,0.3 8.71,0.147 8.71,-0.041 v -21.207 l 9.577,4.422 V 3.935 c 0,0.188 0.151,0.34 0.34,0.34 0.188,0 0.34,-0.152 0.34,-0.34 v -20.978 c 0,-0.133 -0.077,-0.254 -0.197,-0.31 L 8.519,-22.087 c -0.045,-0.022 -0.096,-0.035 -0.15,-0.035" />
      </g>
      <g
         transform="matrix(0.35277777,0,0,-0.35277777,-64.500037,21.427853)"
         id="g5732">
        <path
           inkscape:connector-curvature="0"
           id="path5734"
           style="fill:#756e5e;fill-opacity:1;fill-rule:nonzero;stroke:none"
           d="M 0,0 C -0.188,0 -0.34,0.153 -0.34,0.34 V 2.579 L -1.271,3.133 V 1.237 c 0,-0.189 -0.152,-0.341 -0.34,-0.341 -0.188,0 -0.341,0.152 -0.341,0.341 v 2.495 c 0,0.123 0.066,0.236 0.172,0.296 0.107,0.061 0.238,0.06 0.343,-0.003 L 0.174,3.065 C 0.278,3.003 0.34,2.892 0.34,2.772 V 0.34 C 0.34,0.153 0.188,0 0,0" />
      </g>
      <g
         transform="matrix(0.35277777,0,0,-0.35277777,-62.638995,14.567982)"
         id="g5736">
        <path
           inkscape:connector-curvature="0"
           id="path5738"
           style="fill:#756e5e;fill-opacity:1;fill-rule:nonzero;stroke:none"
           d="m 0,0 v -0.567 l 0.825,0.416 v 0.568 z m -0.34,-1.461 c -0.063,0 -0.124,0.017 -0.179,0.051 -0.101,0.061 -0.162,0.171 -0.162,0.29 v 1.33 c 0,0.129 0.073,0.246 0.187,0.304 l 1.506,0.76 C 1.117,1.328 1.243,1.323 1.344,1.26 1.444,1.198 1.506,1.088 1.506,0.97 v -1.33 c 0,-0.129 -0.073,-0.247 -0.188,-0.305 L -0.187,-1.424 C -0.235,-1.449 -0.288,-1.461 -0.34,-1.461" />
      </g>
    </g>
  </g>
</svg>
