<?xml version="1.0" encoding="UTF-8" standalone="no"?>
<!-- Created with Inkscape (http://www.inkscape.org/) -->

<svg
   xmlns:dc="http://purl.org/dc/elements/1.1/"
   xmlns:cc="http://creativecommons.org/ns#"
   xmlns:rdf="http://www.w3.org/1999/02/22-rdf-syntax-ns#"
   xmlns:svg="http://www.w3.org/2000/svg"
   xmlns="http://www.w3.org/2000/svg"
   xmlns:sodipodi="http://sodipodi.sourceforge.net/DTD/sodipodi-0.dtd"
   xmlns:inkscape="http://www.inkscape.org/namespaces/inkscape"
   width="12.979129mm"
   height="9.7674322mm"
   viewBox="0 0 12.979129 9.7674322"
   version="1.1"
   id="svg11275"
   inkscape:version="0.92.1 r15371"
   sodipodi:docname="tuin2.svg">
  <defs
     id="defs11269" />
  <sodipodi:namedview
     id="base"
     pagecolor="#ffffff"
     bordercolor="#666666"
     borderopacity="1.0"
     inkscape:pageopacity="0.0"
     inkscape:pageshadow="2"
     inkscape:zoom="1.979899"
     inkscape:cx="36.460888"
     inkscape:cy="111.11712"
     inkscape:document-units="mm"
     inkscape:current-layer="layer1"
     showgrid="false"
     fit-margin-top="0"
     fit-margin-left="0"
     fit-margin-right="0"
     fit-margin-bottom="0"
     inkscape:window-width="1920"
     inkscape:window-height="1016"
     inkscape:window-x="0"
     inkscape:window-y="27"
     inkscape:window-maximized="1" />
  <metadata
     id="metadata11272">
    <rdf:RDF>
      <cc:Work
         rdf:about="">
        <dc:format>image/svg+xml</dc:format>
        <dc:type
           rdf:resource="http://purl.org/dc/dcmitype/StillImage" />
        <dc:title></dc:title>
      </cc:Work>
    </rdf:RDF>
  </metadata>
  <g
     inkscape:label="Layer 1"
     inkscape:groupmode="layer"
     id="layer1"
     transform="translate(465.35266,-307.23533)">
    <g
       id="g5696"
       transform="matrix(0.35277777,0,0,-0.35277777,-463.09004,314.51533)">
      <path
         d="M 0,0 13.905,-7.051 24.261,-2.727 8.9,3.312 Z"
         style="fill:#6cff70;fill-opacity:1;fill-rule:nonzero;stroke:none"
         id="path5698"
         inkscape:connector-curvature="0" />
    </g>
    <g
       id="g5700"
       transform="matrix(0.35277777,0,0,-0.35277777,-461.20885,310.51973)">
      <path
         d="m 0,0 v -1.189 l 1.188,0.47 V 0.5 Z m -0.463,-2.333 c -0.092,0 -0.183,0.027 -0.26,0.08 -0.128,0.086 -0.204,0.23 -0.204,0.383 v 2.178 c 0,0.186 0.112,0.355 0.284,0.426 L 1.471,1.625 C 1.613,1.685 1.778,1.669 1.907,1.584 2.036,1.498 2.114,1.354 2.114,1.199 v -2.233 c 0,-0.19 -0.116,-0.36 -0.293,-0.43 L -0.293,-2.3 c -0.055,-0.022 -0.113,-0.033 -0.17,-0.033 m 5.819,1.475 1.892,-0.749 v 1.514 l -1.892,0.75 z m 2.355,-1.893 c -0.057,0 -0.115,0.01 -0.17,0.032 l -2.819,1.116 c -0.176,0.07 -0.292,0.24 -0.292,0.43 v 2.511 c 0,0.153 0.075,0.297 0.202,0.383 0.128,0.087 0.289,0.104 0.431,0.047 L 7.882,0.652 C 8.058,0.583 8.175,0.412 8.175,0.222 v -2.511 c 0,-0.153 -0.076,-0.296 -0.204,-0.382 -0.077,-0.054 -0.168,-0.08 -0.26,-0.08 m -11.094,1.356 v -1.188 l 1.188,0.469 v 1.22 z m -0.463,-2.333 c -0.092,0 -0.182,0.028 -0.26,0.08 -0.127,0.087 -0.203,0.23 -0.203,0.383 v 2.178 c 0,0.187 0.112,0.355 0.284,0.427 l 2.114,0.89 c 0.142,0.06 0.307,0.045 0.436,-0.041 0.129,-0.086 0.206,-0.23 0.206,-0.385 v -2.232 c 0,-0.19 -0.116,-0.361 -0.292,-0.431 l -2.114,-0.836 c -0.056,-0.022 -0.113,-0.033 -0.171,-0.033 m -4.892,2.006 1.891,-0.936 v 1.198 l -1.891,0.936 z m 2.355,-2.145 c -0.07,0 -0.14,0.016 -0.205,0.048 l -2.819,1.395 c -0.157,0.077 -0.258,0.238 -0.258,0.415 v 2.231 c 0,0.16 0.083,0.309 0.22,0.393 0.135,0.085 0.306,0.093 0.448,0.022 l 2.819,-1.394 c 0.158,-0.079 0.258,-0.24 0.258,-0.416 v -2.231 c 0,-0.16 -0.082,-0.309 -0.219,-0.393 -0.074,-0.047 -0.159,-0.07 -0.244,-0.07 m 16.249,1.336 1.892,-0.75 v 1.514 l -1.892,0.749 z m 2.355,-1.895 c -0.057,0 -0.116,0.011 -0.17,0.033 l -2.819,1.117 c -0.176,0.069 -0.293,0.24 -0.293,0.43 v 2.51 c 0,0.153 0.076,0.296 0.204,0.383 0.126,0.087 0.287,0.103 0.43,0.048 l 2.819,-1.116 c 0.176,-0.071 0.293,-0.241 0.293,-0.431 v -2.51 c 0,-0.154 -0.077,-0.298 -0.203,-0.384 -0.079,-0.052 -0.169,-0.08 -0.261,-0.08 m 2.155,-0.058 1.893,-0.749 v 1.514 l -1.893,0.749 z m 2.355,-1.894 c -0.057,0 -0.114,0.011 -0.17,0.033 l -2.818,1.116 c -0.177,0.069 -0.293,0.24 -0.293,0.43 v 2.51 c 0,0.154 0.076,0.297 0.203,0.383 0.127,0.087 0.288,0.104 0.43,0.048 l 2.819,-1.116 c 0.177,-0.069 0.293,-0.24 0.293,-0.43 v -2.511 c 0,-0.153 -0.076,-0.296 -0.203,-0.383 -0.078,-0.053 -0.168,-0.08 -0.261,-0.08 M 0,-4.184 v -1.189 l 1.188,0.471 v 1.219 z m -0.463,-2.333 c -0.092,0 -0.183,0.027 -0.26,0.08 -0.128,0.086 -0.204,0.229 -0.204,0.382 v 2.179 c 0,0.186 0.112,0.354 0.284,0.426 l 2.114,0.891 c 0.142,0.06 0.307,0.044 0.436,-0.041 0.129,-0.086 0.207,-0.23 0.207,-0.385 v -2.232 c 0,-0.19 -0.116,-0.361 -0.292,-0.431 l -2.115,-0.837 c -0.055,-0.022 -0.113,-0.032 -0.17,-0.032 m -8.275,-0.226 1.891,-0.937 v 1.199 l -1.891,0.936 z m 2.355,-2.145 c -0.07,0 -0.14,0.015 -0.205,0.047 l -2.819,1.396 c -0.157,0.077 -0.258,0.238 -0.258,0.415 v 2.231 c 0,0.159 0.083,0.309 0.22,0.393 0.135,0.084 0.306,0.093 0.448,0.022 l 2.819,-1.395 c 0.158,-0.078 0.258,-0.239 0.258,-0.415 v -2.232 c 0,-0.159 -0.082,-0.309 -0.219,-0.393 -0.074,-0.046 -0.159,-0.069 -0.244,-0.069 m 16.249,1.587 1.892,-0.936 v 1.45 l -1.892,0.749 z m 2.355,-2.145 c -0.07,0 -0.14,0.016 -0.205,0.048 l -2.819,1.395 c -0.158,0.078 -0.258,0.239 -0.258,0.415 v 2.231 c 0,0.154 0.076,0.297 0.204,0.383 0.126,0.086 0.287,0.104 0.43,0.048 l 2.819,-1.116 c 0.176,-0.07 0.293,-0.24 0.293,-0.43 v -2.511 c 0,-0.16 -0.083,-0.309 -0.22,-0.393 -0.074,-0.046 -0.159,-0.07 -0.244,-0.07 m 2.155,0.192 1.893,-0.936 v 1.449 l -1.893,0.75 z m 2.355,-2.145 c -0.069,0 -0.139,0.016 -0.205,0.047 l -2.818,1.396 c -0.158,0.078 -0.258,0.239 -0.258,0.415 v 2.231 c 0,0.154 0.076,0.297 0.203,0.383 0.127,0.087 0.288,0.104 0.43,0.048 l 2.819,-1.116 c 0.177,-0.07 0.293,-0.24 0.293,-0.431 v -2.511 c 0,-0.159 -0.083,-0.308 -0.218,-0.393 -0.076,-0.045 -0.16,-0.069 -0.246,-0.069 M 3.061,4.172 c 0.057,0 0.115,-0.01 0.169,-0.032 L 17.658,-1.55 23.296,0.733 2.68,8.31 -10.137,2.913 -5.11,0.591 2.873,4.133 c 0.06,0.026 0.124,0.039 0.188,0.039 M 5.122,-8.254 7.173,-9.093 c -0.026,0.055 -0.04,0.115 -0.042,0.178 L 6.977,-4.812 5.098,-3.883 5.225,-7.949 C 5.228,-8.065 5.189,-8.171 5.122,-8.254 m -8.505,2.675 v -4.285 l 1.279,0.466 c -0.057,0.077 -0.091,0.172 -0.091,0.275 v 4.045 z m -7.437,-2.088 5.243,-2.407 v 9.861 l -5.243,2.421 z m 6.17,7.449 v -10.108 l 0.341,0.124 v 4.931 c 0,0.187 0.112,0.355 0.284,0.427 l 2.114,0.891 c 0.142,0.059 0.307,0.044 0.436,-0.042 0.129,-0.086 0.206,-0.23 0.206,-0.385 v -4.714 l 3.996,1.454 0.01,10.699 z m 12.408,-9.113 9.439,-3.858 V -2.364 L 3.664,2.973 3.652,-7.653 4.296,-7.916 4.147,-3.14 c -0.004,0.163 0.076,0.317 0.213,0.404 0.137,0.089 0.31,0.097 0.456,0.026 L 7.635,-4.105 C 7.787,-4.18 7.886,-4.333 7.893,-4.503 L 8.057,-8.881 C 8.064,-9.084 7.938,-9.262 7.758,-9.331 m 10.366,6.97 v -10.831 l 5.995,2.427 V 0.066 Z M 17.66,-14.342 c -0.053,0 -0.106,0.009 -0.159,0.029 H 17.5 c -0.005,0.002 -0.012,0.003 -0.017,0.006 l -14.304,5.848 -7.993,-2.912 c -0.205,-0.074 -0.427,0.004 -0.544,0.177 l -6.118,2.809 c -0.165,0.076 -0.27,0.24 -0.27,0.422 V 2.922 c -0.002,0.06 0.009,0.121 0.032,0.18 v 0.001 c 0.005,0.012 0.011,0.025 0.017,0.038 0.051,0.102 0.136,0.177 0.234,0.219 h 10e-4 L 2.171,9.1 c 0.115,0.177 0.341,0.257 0.548,0.182 l 22.02,-8.094 c 0.011,-0.003 0.021,-0.007 0.032,-0.012 0.059,-0.027 0.11,-0.064 0.152,-0.11 0,-0.001 0,-0.001 0.001,-0.001 V 1.064 c 0.018,-0.019 0.034,-0.04 0.048,-0.062 L 24.973,1.001 C 25.014,0.936 25.039,0.86 25.044,0.78 V 0.779 0.778 C 25.045,0.77 25.045,0.761 25.045,0.753 v -11.83 c 0,-0.189 -0.115,-0.358 -0.29,-0.429 l -6.921,-2.803 c -0.004,-0.001 -0.01,-0.003 -0.015,-0.004 l -10e-4,-10e-4 h -0.001 v 0 c -0.05,-0.019 -0.103,-0.028 -0.157,-0.028"
         style="fill:#756e5e;fill-opacity:1;fill-rule:nonzero;stroke:none"
         id="path5702"
         inkscape:connector-curvature="0" />
    </g>
  </g>
</svg>
