<?xml version="1.0" encoding="UTF-8" standalone="no"?>
<!-- Created with Inkscape (http://www.inkscape.org/) -->

<svg
   xmlns:dc="http://purl.org/dc/elements/1.1/"
   xmlns:cc="http://creativecommons.org/ns#"
   xmlns:rdf="http://www.w3.org/1999/02/22-rdf-syntax-ns#"
   xmlns:svg="http://www.w3.org/2000/svg"
   xmlns="http://www.w3.org/2000/svg"
   xmlns:sodipodi="http://sodipodi.sourceforge.net/DTD/sodipodi-0.dtd"
   xmlns:inkscape="http://www.inkscape.org/namespaces/inkscape"
   width="1069.4893mm"
   height="18.039726mm"
   viewBox="0 0 1069.4892 18.039726"
   version="1.1"
   id="svg5453"
   sodipodi:docname="waves.svg"
   inkscape:version="0.92.1 r15371">
  <defs
     id="defs5447" />
  <sodipodi:namedview
     id="base"
     pagecolor="#ffffff"
     bordercolor="#666666"
     borderopacity="1.0"
     inkscape:pageopacity="0.0"
     inkscape:pageshadow="2"
     inkscape:zoom="0.175"
     inkscape:cx="2042.6908"
     inkscape:cy="-482.65663"
     inkscape:document-units="mm"
     inkscape:current-layer="layer1"
     showgrid="false"
     inkscape:window-width="1920"
     inkscape:window-height="1043"
     inkscape:window-x="1920"
     inkscape:window-y="0"
     inkscape:window-maximized="1"
     fit-margin-top="0"
     fit-margin-left="0"
     fit-margin-right="0"
     fit-margin-bottom="0" />
  <metadata
     id="metadata5450">
    <rdf:RDF>
      <cc:Work
         rdf:about="">
        <dc:format>image/svg+xml</dc:format>
        <dc:type
           rdf:resource="http://purl.org/dc/dcmitype/StillImage" />
        <dc:title></dc:title>
      </cc:Work>
    </rdf:RDF>
  </metadata>
  <g
     inkscape:label="Layer 1"
     inkscape:groupmode="layer"
     id="layer1"
     transform="translate(0,-278.96038)">
    <path
       style="fill:#ffffff;fill-opacity:1;fill-rule:evenodd;stroke-width:1.87336636"
       d="M 83.791016 0 C 66.870146 -0.00132283 49.945203 4.1886443 32.300781 12.576172 C 20.878066 18.005766 10.42148 20.822255 0 21.035156 L 0 68.181641 L 336.84766 68.060547 L 336.84766 68.181641 L 673.26562 68.060547 L 673.26562 68.181641 L 1010.541 68.060547 L 1010.541 68.181641 L 1347.3887 68.060547 L 1347.3887 68.181641 L 1683.8066 68.060547 L 1683.8066 68.181641 L 2021.082 68.060547 L 2021.082 68.181641 L 2357.9297 68.060547 L 2357.9297 68.181641 L 2694.3477 68.060547 L 2694.3477 68.181641 L 3031.623 68.060547 L 3031.623 68.181641 L 3368.4707 68.060547 L 3368.4707 68.181641 L 3704.8887 68.060547 L 3704.8887 68.181641 L 4042.1641 68.060547 L 4042.1641 20.869141 C 4031.7688 20.600038 4021.3424 17.839429 4010.2695 12.576172 C 3975.5383 -3.9333714 3942.0382 -3.9333714 3907.3066 12.576172 C 3883.9684 23.669917 3863.4909 23.670484 3840.1523 12.576172 C 3822.5174 4.1940112 3805.6006 0.0013606299 3788.6797 0 C 3771.7589 -0.0013228346 3754.834 4.1886443 3737.1895 12.576172 C 3726.0797 17.857003 3715.8846 20.658193 3705.7461 21.003906 L 3705.7461 20.869141 C 3695.3511 20.600038 3684.9242 17.839429 3673.8516 12.576172 C 3639.1203 -3.9333714 3605.62 -3.9333714 3570.8887 12.576172 C 3547.5505 23.669917 3527.0727 23.670484 3503.7344 12.576172 C 3486.0994 4.1939734 3469.1806 0.0013228346 3452.2598 0 C 3435.3389 -0.0013606299 3418.4159 4.1886065 3400.7715 12.576172 C 3389.5049 17.931536 3379.1785 20.73744 3368.8984 21.017578 L 3368.8984 20.871094 C 3358.5034 20.601991 3348.0765 17.839429 3337.0039 12.576172 C 3302.2725 -3.9333714 3268.7722 -3.9333714 3234.041 12.576172 C 3210.7028 23.669917 3190.225 23.670484 3166.8867 12.576172 C 3149.2516 4.1939734 3132.335 0.0013606299 3115.4141 0 C 3098.4933 -0.0013228346 3081.5682 4.1886443 3063.9238 12.576172 C 3052.5011 18.005766 3042.0445 20.822255 3031.623 21.035156 L 3031.623 20.869141 C 3021.2281 20.600038 3010.8012 17.839429 2999.7285 12.576172 C 2964.9972 -3.9333714 2931.4969 -3.9333714 2896.7656 12.576172 C 2873.4274 23.669917 2852.9496 23.670484 2829.6113 12.576172 C 2811.9763 4.1940112 2795.0595 0.0013606299 2778.1387 0 C 2761.2178 -0.0013228346 2744.2929 4.1886443 2726.6484 12.576172 C 2715.5387 17.857003 2705.3436 20.658193 2695.2051 21.003906 L 2695.2051 20.869141 C 2684.8101 20.600038 2674.3832 17.839429 2663.3105 12.576172 C 2628.5792 -3.9333714 2595.0789 -3.9333714 2560.3477 12.576172 C 2537.0095 23.669917 2516.5316 23.670484 2493.1934 12.576172 C 2475.5583 4.1939734 2458.6396 0.0013228346 2441.7188 0 C 2424.7979 -0.0013606299 2407.8749 4.1886065 2390.2305 12.576172 C 2378.9639 17.931536 2368.6376 20.73744 2358.3574 21.017578 L 2358.3574 20.871094 C 2347.9624 20.601991 2337.5355 17.839429 2326.4629 12.576172 C 2291.7316 -3.9333714 2258.2313 -3.9333714 2223.5 12.576172 C 2200.1618 23.669917 2179.684 23.670484 2156.3457 12.576172 C 2138.7107 4.1939734 2121.7939 0.0013606299 2104.873 0 C 2087.9522 -0.0013228346 2071.0272 4.1886443 2053.3828 12.576172 C 2041.9601 18.005766 2031.5035 20.822255 2021.082 21.035156 L 2021.082 20.869141 C 2010.6871 20.600038 2000.2602 17.839429 1989.1875 12.576172 C 1954.4562 -3.9333713 1920.9559 -3.9333713 1886.2246 12.576172 C 1862.8864 23.669917 1842.4086 23.670484 1819.0703 12.576172 C 1801.4353 4.1940112 1784.5185 0.00136063 1767.5977 0 C 1750.6768 -0.00132283 1733.7519 4.1886443 1716.1074 12.576172 C 1704.9977 17.857003 1694.8026 20.658193 1684.6641 21.003906 L 1684.6641 20.869141 C 1674.2691 20.600038 1663.8421 17.839429 1652.7695 12.576172 C 1618.0382 -3.9333713 1584.5379 -3.9333713 1549.8066 12.576172 C 1526.4685 23.669917 1505.9906 23.670484 1482.6523 12.576172 C 1465.0173 4.1939734 1448.0986 0.00132283 1431.1777 0 C 1414.2569 -0.00136063 1397.3339 4.1886065 1379.6895 12.576172 C 1368.4229 17.931536 1358.0965 20.73744 1347.8164 21.017578 L 1347.8164 20.871094 C 1337.4214 20.601991 1326.9945 17.839429 1315.9219 12.576172 C 1281.1905 -3.9333713 1247.6902 -3.9333713 1212.959 12.576172 C 1189.6208 23.669917 1169.143 23.670484 1145.8047 12.576172 C 1128.1696 4.1939734 1111.2529 0.00136063 1094.332 0 C 1077.4112 -0.00132283 1060.4862 4.1886443 1042.8418 12.576172 C 1031.4191 18.005766 1020.9625 20.822255 1010.541 21.035156 L 1010.541 20.869141 C 1000.1461 20.600038 989.71914 17.839429 978.64648 12.576172 C 943.91516 -3.9333713 910.41488 -3.9333713 875.68359 12.576172 C 852.34539 23.669917 831.86758 23.670484 808.5293 12.576172 C 790.89425 4.1940112 773.97747 0.00136063 757.05664 0 C 740.13577 -0.00132283 723.21087 4.1886443 705.56641 12.576172 C 694.45667 17.857003 684.26159 20.658193 674.12305 21.003906 L 674.12305 20.869141 C 663.7281 20.600038 653.30113 17.839429 642.22852 12.576172 C 607.49719 -3.9333713 573.99691 -3.9333713 539.26562 12.576172 C 515.92747 23.669917 495.44961 23.670484 472.11133 12.576172 C 454.47624 4.1939734 437.55755 0.00132283 420.63672 0 C 403.71585 -0.00136063 386.79286 4.1886065 369.14844 12.576172 C 357.88185 17.931536 347.55552 20.73744 337.27539 21.017578 L 337.27539 20.871094 C 326.8804 20.601991 316.45351 17.839429 305.38086 12.576172 C 270.64953 -3.9333713 237.14922 -3.9333713 202.41797 12.576172 C 179.07976 23.669917 158.60195 23.670484 135.26367 12.576172 C 117.62862 4.1939734 100.71185 0.00136063 83.791016 0 z "
       transform="matrix(0.26458333,0,0,0.26458333,0,278.96038)"
       id="path14-8-0" />
  </g>
</svg>
