<?xml version="1.0" encoding="UTF-8" standalone="no"?>
<!-- Created with Inkscape (http://www.inkscape.org/) -->

<svg
   xmlns:dc="http://purl.org/dc/elements/1.1/"
   xmlns:cc="http://creativecommons.org/ns#"
   xmlns:rdf="http://www.w3.org/1999/02/22-rdf-syntax-ns#"
   xmlns:svg="http://www.w3.org/2000/svg"
   xmlns="http://www.w3.org/2000/svg"
   xmlns:sodipodi="http://sodipodi.sourceforge.net/DTD/sodipodi-0.dtd"
   xmlns:inkscape="http://www.inkscape.org/namespaces/inkscape"
   width="1069.4893mm"
   height="39.20639mm"
   viewBox="0 0 1069.4892 39.20639"
   version="1.1"
   id="svg5453"
   sodipodi:docname="waves.svg"
   inkscape:version="0.92.1 r15371">
  <defs
     id="defs5447" />
  <sodipodi:namedview
     id="base"
     pagecolor="#ffffff"
     bordercolor="#666666"
     borderopacity="1.0"
     inkscape:pageopacity="0.0"
     inkscape:pageshadow="2"
     inkscape:zoom="0.24748737"
     inkscape:cx="2215.2849"
     inkscape:cy="-316.54993"
     inkscape:document-units="mm"
     inkscape:current-layer="layer1"
     showgrid="false"
     inkscape:window-width="1920"
     inkscape:window-height="1016"
     inkscape:window-x="0"
     inkscape:window-y="27"
     inkscape:window-maximized="1"
     fit-margin-top="0"
     fit-margin-left="0"
     fit-margin-right="0"
     fit-margin-bottom="0" />
  <metadata
     id="metadata5450">
    <rdf:RDF>
      <cc:Work
         rdf:about="">
        <dc:format>image/svg+xml</dc:format>
        <dc:type
           rdf:resource="http://purl.org/dc/dcmitype/StillImage" />
        <dc:title></dc:title>
      </cc:Work>
    </rdf:RDF>
  </metadata>
  <g
     inkscape:label="Layer 1"
     inkscape:groupmode="layer"
     id="layer1"
     transform="translate(0,-278.96038)">
    <path
       style="fill:#ffffff;fill-opacity:1;fill-rule:evenodd;stroke-width:1.87336636"
       d="M 83.791016,0 C 66.870146,-0.00132283 49.945203,4.1886443 32.300781,12.576172 20.878066,18.005766 10.42148,20.822255 0,21.035156 V 148.18164 l 336.84766,-0.12109 v 0.12109 l 336.41796,-0.12109 v 0.12109 l 337.27538,-0.12109 v 0.12109 l 336.8477,-0.12109 v 0.12109 l 336.4179,-0.12109 v 0.12109 l 337.2754,-0.12109 v 0.12109 l 336.8477,-0.12109 v 0.12109 l 336.418,-0.12109 v 0.12109 l 337.2753,-0.12109 v 0.12109 l 336.8477,-0.12109 v 0.12109 l 336.418,-0.12109 v 0.12109 l 337.2754,-0.12109 V 20.869141 c -10.3953,-0.269103 -20.8217,-3.029712 -31.8946,-8.292969 -34.7312,-16.5095434 -68.2313,-16.5095434 -102.9629,0 -23.3382,11.093745 -43.8157,11.094312 -67.1543,0 C 3822.5174,4.1940112 3805.6006,0.00136063 3788.6797,0 c -16.9208,-0.00132283 -33.8457,4.1886443 -51.4902,12.576172 -11.1098,5.280831 -21.3049,8.082021 -31.4434,8.427734 v -0.134765 c -10.395,-0.269103 -20.8219,-3.029712 -31.8945,-8.292969 -34.7313,-16.5095434 -68.2316,-16.5095434 -102.9629,0 -23.3382,11.093745 -43.816,11.094312 -67.1543,0 C 3486.0994,4.1939734 3469.1806,0.00132283 3452.2598,0 c -16.9209,-0.00136063 -33.8439,4.1886065 -51.4883,12.576172 -11.2666,5.355364 -21.593,8.161268 -31.8731,8.441406 v -0.146484 c -10.395,-0.269103 -20.8219,-3.031665 -31.8945,-8.294922 -34.7314,-16.5095434 -68.2317,-16.5095434 -102.9629,0 -23.3382,11.093745 -43.816,11.094312 -67.1543,0 C 3149.2516,4.1939734 3132.335,0.00136063 3115.4141,0 c -16.9208,-0.00132283 -33.8459,4.1886443 -51.4903,12.576172 -11.4227,5.429594 -21.8793,8.246083 -32.3008,8.458984 v -0.166015 c -10.3949,-0.269103 -20.8218,-3.029712 -31.8945,-8.292969 -34.7313,-16.5095434 -68.2316,-16.5095434 -102.9629,0 -23.3382,11.093745 -43.816,11.094312 -67.1543,0 C 2811.9763,4.1940112 2795.0595,0.00136063 2778.1387,0 c -16.9209,-0.00132283 -33.8458,4.1886443 -51.4903,12.576172 -11.1097,5.280831 -21.3048,8.082021 -31.4433,8.427734 v -0.134765 c -10.395,-0.269103 -20.8219,-3.029712 -31.8946,-8.292969 -34.7313,-16.5095434 -68.2316,-16.5095434 -102.9628,0 -23.3382,11.093745 -43.8161,11.094312 -67.1543,0 C 2475.5583,4.1939734 2458.6396,0.00132283 2441.7188,0 c -16.9209,-0.00136063 -33.8439,4.1886065 -51.4883,12.576172 -11.2666,5.355364 -21.5929,8.161268 -31.8731,8.441406 v -0.146484 c -10.395,-0.269103 -20.8219,-3.031665 -31.8945,-8.294922 -34.7313,-16.5095434 -68.2316,-16.5095434 -102.9629,0 -23.3382,11.093745 -43.816,11.094312 -67.1543,0 C 2138.7107,4.1939734 2121.7939,0.00136063 2104.873,0 c -16.9208,-0.00132283 -33.8458,4.1886443 -51.4902,12.576172 -11.4227,5.429594 -21.8793,8.246083 -32.3008,8.458984 v -0.166015 c -10.3949,-0.269103 -20.8218,-3.029712 -31.8945,-8.292969 -34.7313,-16.5095433 -68.2316,-16.5095433 -102.9629,0 -23.3382,11.093745 -43.816,11.094312 -67.1543,0 C 1801.4353,4.1940112 1784.5185,0.00136063 1767.5977,0 c -16.9209,-0.00132283 -33.8458,4.1886443 -51.4903,12.576172 -11.1097,5.280831 -21.3048,8.082021 -31.4433,8.427734 v -0.134765 c -10.395,-0.269103 -20.822,-3.029712 -31.8946,-8.292969 -34.7313,-16.5095433 -68.2316,-16.5095433 -102.9629,0 -23.3381,11.093745 -43.816,11.094312 -67.1543,0 C 1465.0173,4.1939734 1448.0986,0.00132283 1431.1777,0 c -16.9208,-0.00136063 -33.8438,4.1886065 -51.4882,12.576172 -11.2666,5.355364 -21.593,8.161268 -31.8731,8.441406 v -0.146484 c -10.395,-0.269103 -20.8219,-3.031665 -31.8945,-8.294922 -34.7314,-16.5095433 -68.2317,-16.5095433 -102.9629,0 -23.3382,11.093745 -43.816,11.094312 -67.1543,0 C 1128.1696,4.1939734 1111.2529,0.00136063 1094.332,0 c -16.9208,-0.00132283 -33.8458,4.1886443 -51.4902,12.576172 -11.4227,5.429594 -21.8793,8.246083 -32.3008,8.458984 v -0.166015 c -10.3949,-0.269103 -20.82186,-3.029712 -31.89452,-8.292969 -34.73132,-16.5095433 -68.2316,-16.5095433 -102.96289,0 -23.3382,11.093745 -43.81601,11.094312 -67.15429,0 C 790.89425,4.1940112 773.97747,0.00136063 757.05664,0 c -16.92087,-0.00132283 -33.84577,4.1886443 -51.49023,12.576172 -11.10974,5.280831 -21.30482,8.082021 -31.44336,8.427734 v -0.134765 c -10.39495,-0.269103 -20.82192,-3.029712 -31.89453,-8.292969 -34.73133,-16.5095433 -68.23161,-16.5095433 -102.9629,0 -23.33815,11.093745 -43.81601,11.094312 -67.15429,0 C 454.47624,4.1939734 437.55755,0.00132283 420.63672,0 c -16.92087,-0.00136063 -33.84386,4.1886065 -51.48828,12.576172 -11.26659,5.355364 -21.59292,8.161268 -31.87305,8.441406 v -0.146484 c -10.39499,-0.269103 -20.82188,-3.031665 -31.89453,-8.294922 -34.73133,-16.5095433 -68.23164,-16.5095433 -102.96289,0 -23.33821,11.093745 -43.81602,11.094312 -67.1543,0 C 117.62862,4.1939734 100.71185,0.00136063 83.791016,0 Z"
       transform="matrix(0.26458333,0,0,0.26458333,0,278.96038)"
       id="path14-8-0"
       inkscape:connector-curvature="0"
       sodipodi:nodetypes="cccccccccccccccccccccccccccccsccccccccccccccccccccccccccccccccccccccccccccccccccccccccccccccccccccccccccccccc" />
  </g>
</svg>
